<svg xmlns="http://www.w3.org/2000/svg" version="1.1" xmlns:xlink="http://www.w3.org/1999/xlink" width="500" height="102" viewBox="0 0 500 102"><svg xml:space="preserve" width="2000" height="102" data-version="2" data-id="lg_qJm7IQVMyLEvUukQFp" viewBox="0 0 567 102" x="0" y="0"><rect width="100%" height="100%" fill="transparent"></rect><rect width="119.45" height="119.45" x="-59.73" y="-59.73" fill="#b69e03" rx="0" ry="0" transform="translate(55.6 51.4)scale(.4888)"></rect><path fill="#efefef" d="M168.635 98.57h-14.67q-.57 0-.57-.64V23.79h-16.88q-.64 0-.64-.63l.13-14.54q0-.51.51-.51h49.38q.7 0 .7.51v14.54q0 .63-.51.63h-17.07l.12 74.14q0 .64-.5.64"></path><rect width="50.72" height="90.46" x="-25.36" y="-45.23" fill="none" rx="0" ry="0" transform="translate(161.74 53.84)"></rect><path fill="#efefef" d="M202.525 98.57h-14.73q-.64 0-.64-.64l.13-89.31q0-.51.51-.51h14.6q.51 0 .51.51l.12 89.31q0 .64-.5.64"></path><rect width="15.87" height="90.46" x="-7.93" y="-45.23" fill="none" rx="0" ry="0" transform="translate(195.59 53.84)"></rect><path fill="#efefef" d="m232.665 98.44-23.3.13q-.63 0-.63-.64l.25-89.31q0-.51.51-.51l24.31-.12q7.24-.19 13.08 3.3 5.9 3.49 9.42 9.42 3.53 5.94 3.53 13.11v37.32q0 7.5-3.62 13.72-3.68 6.15-9.78 9.8-6.09 3.65-13.77 3.78m1.14-74.9-9.08.12-.12 58.91h8.06q4.82 0 8.12-3.36 3.31-3.37 3.31-8.07V33.69q0-4.12-3.05-7.2t-7.24-2.95"></path><rect width="51.1" height="90.64" x="-25.55" y="-45.32" fill="none" rx="0" ry="0" transform="translate(234.78 53.75)"></rect><path fill="#efefef" d="M291.435 98.57h-14.92q-.44 0-.44-.51l.13-36.94-17.4-52.5q-.12-.51.39-.51h14.47q.63 0 .76.51l9.58 34.98 9.78-34.98q.13-.51.63-.51h14.6q.51 0 .39.51l-17.59 51.99.13 37.45q0 .51-.51.51"></path><rect width="50.73" height="90.46" x="-25.37" y="-45.23" fill="none" rx="0" ry="0" transform="translate(284.6 53.84)"></rect><path fill="#efefef" d="M338.465 98.57h-14.66q-.57 0-.57-.64V23.79h-16.89q-.63 0-.63-.63l.12-14.54q0-.51.51-.51h49.39q.69 0 .69.51v14.54q0 .63-.5.63h-17.08l.13 74.14q0 .64-.51.64"></path><rect width="50.71" height="90.46" x="-25.36" y="-45.23" fill="none" rx="0" ry="0" transform="translate(331.57 53.84)"></rect><path fill="#efefef" d="m352.615 97.93 16.12-89.31q.13-.51.64-.51h18.85q.51 0 .63.51l15.49 89.31q.07.64-.51.64h-14.4q-.64 0-.7-.64l-1.4-9.52h-17.71l-1.4 9.52q-.06.64-.63.64h-14.47q-.51 0-.51-.64m26.79-59.92-.77-4.82-.57 4.82-5.84 36.5h12.51Z"></path><rect width="51.76" height="90.46" x="-25.88" y="-45.23" fill="none" rx="0" ry="0" transform="translate(379 53.84)"></rect><path fill="#efefef" d="M428.845 99.84q-6.92 0-12.76-3.56-5.78-3.55-9.24-9.49-3.46-5.93-3.46-13.04v-5.97q0-.7.64-.7h14.6q.5 0 .5.7v5.97q0 4.25 2.86 7.33t6.86 3.08q4.06 0 6.92-3.14 2.85-3.15 2.85-7.27 0-4.76-6.22-8.32-1.01-.63-2.63-1.55-1.62-.92-3.84-2.13-2.22-1.21-4.32-2.38-2.09-1.17-4.06-2.25-7.11-4.19-10.57-10.51-3.46-6.31-3.46-14.19 0-7.23 3.55-13.07 3.56-5.78 9.3-9.17 5.75-3.4 12.48-3.4 6.92 0 12.69 3.43 5.78 3.49 9.24 9.27 3.46 5.77 3.46 12.94v10.67q0 .51-.51.51h-14.6q-.51 0-.51-.51l-.12-10.67q0-4.57-2.86-7.42-2.86-2.86-6.79-2.86-4 0-6.86 3.05-2.86 3.04-2.86 7.23 0 4.26 1.81 7.11 1.81 2.86 6.64 5.46.51.26 2.35 1.27 1.84 1.02 4.09 2.26 2.25 1.23 4.09 2.22 1.85.98 2.23 1.17 6.47 3.62 10.25 8.89 3.77 5.27 3.77 12.95 0 7.42-3.42 13.33-3.49 5.9-9.27 9.33-5.78 3.43-12.82 3.43"></path><rect width="50.97" height="93.06" x="-25.48" y="-46.53" fill="none" rx="0" ry="0" transform="translate(429.37 53.81)"></rect><path fill="#efefef" d="M472.885 98.57h-14.72q-.51 0-.51-.64l.25-89.18q0-.64.51-.64h14.6q.51 0 .51.64v30.78l20.37-30.91q.51-.51.96-.51h14.91q.57 0 .26.51l-22.47 35.86 25.2 53.58q.31.51-.64.51h-15.87q-.63 0-.76-.51l-17.58-38.21-4.51 7.11v30.97q0 .64-.51.64"></path><rect width="55.28" height="90.46" x="-27.64" y="-45.23" fill="none" rx="0" ry="0" transform="translate(485.8 53.84)"></rect><path fill="#efefef" d="M534.965 99.84q-6.92 0-12.76-3.56-5.78-3.55-9.24-9.49-3.46-5.93-3.46-13.04v-5.97q0-.7.64-.7h14.6q.5 0 .5.7v5.97q0 4.25 2.86 7.33t6.86 3.08q4.06 0 6.91-3.14 2.86-3.15 2.86-7.27 0-4.76-6.22-8.32-1.02-.63-2.63-1.55-1.62-.92-3.84-2.13-2.23-1.21-4.32-2.38-2.1-1.17-4.06-2.25-7.11-4.19-10.57-10.51-3.46-6.31-3.46-14.19 0-7.23 3.55-13.07 3.56-5.78 9.3-9.17 5.75-3.4 12.48-3.4 6.91 0 12.69 3.43 5.78 3.49 9.24 9.27 3.46 5.77 3.46 12.94v10.67q0 .51-.51.51h-14.6q-.51 0-.51-.51l-.13-10.67q0-4.57-2.85-7.42-2.86-2.86-6.79-2.86-4 0-6.86 3.05-2.86 3.04-2.86 7.23 0 4.26 1.81 7.11 1.81 2.86 6.64 5.46.5.26 2.34 1.27l4.1 2.26q2.25 1.23 4.09 2.22 1.84.98 2.22 1.17 6.48 3.62 10.26 8.89 3.77 5.27 3.77 12.95 0 7.42-3.42 13.33-3.5 5.9-9.27 9.33-5.78 3.43-12.82 3.43"></path><rect width="50.97" height="93.06" x="-25.48" y="-46.53" fill="none" rx="0" ry="0" transform="translate(535.49 53.81)"></rect><circle r="50" fill="#efefef" transform="translate(29.97 25.6)scale(.4888)"></circle><circle r="50" fill="#efefef" transform="translate(79.71 25.6)scale(.4888)"></circle><circle r="50" fill="#efefef" transform="translate(29.97 75.19)scale(.4888)"></circle><circle r="50" fill="#efefef" transform="translate(79.71 75.19)scale(.4888)"></circle></svg></svg>