<svg width="1928" height="1946" viewBox="0 0 1928 1946" fill="none" xmlns="http://www.w3.org/2000/svg">
<path d="M70.85 1066.04L486.47 155.71C547.37 22.32 704.87 -36.44 838.26 24.46L1741.52 436.85C1874.91 497.75 1933.67 655.25 1872.77 788.64L1457.15 1698.97C1396.25 1832.36 1238.75 1891.12 1105.36 1830.22L202.1 1417.83C68.71 1356.93 9.94997 1199.43 70.85 1066.04Z" fill="#CCF8F5"/>
<path d="M1151.16 112.24C1185.37 95.18 1211.51 62.71 1220.88 25.65C1180.7 34 1146.03 64.98 1133.23 103.97C1089.34 61.65 1020.56 54.33 961.65 70.02C902.74 85.71 851.23 120.87 801 155.43C788.38 164.12 775.47 173.08 766.69 185.64C757.91 198.2 753.99 215.32 760.84 229.03C696.28 289.99 664.76 384.03 679.54 471.59C694.33 559.14 754.99 637.62 831.93 675.13C825.84 705.46 830.77 737.89 845.6 765.04C834.87 762.89 823.8 768.93 817.04 777.53C810.28 786.13 807.02 796.91 804.25 807.49C795.32 841.56 789.91 876.56 787.8 915.27C775.36 901.92 774.16 878.41 757.54 870.86C749.6 867.25 740.1 868.7 732.29 872.59C724.49 876.49 718.04 882.58 711.71 888.59C710.96 875.16 697.45 864.8 684 864.58C670.55 864.36 658.02 872.32 649.48 882.71C640.94 893.1 635.72 905.75 628.09 918.51C627.71 851.57 634.35 784.6 647.23 719.39C512.82 717.23 378.13 733.82 243.98 771.98C239.4 792.9 234.81 813.82 230.23 834.74C229.28 839.08 228.3 843.51 226.05 847.35C221.95 854.37 214.32 858.4 207.08 862.08C180.02 875.83 152.96 889.58 121.91 905.44C141.25 949.97 160.59 994.5 179.93 1039.04C166.46 1044.96 152.99 1050.88 139.52 1056.79C147.22 1075.88 154.91 1094.98 154.21 1113.12C159.26 1137.17 170.53 1159.88 186.62 1178.45C127.24 1204 67.86 1229.54 8.47002 1255.09C6.87002 1268.68 5.30002 1282.68 9.04002 1295.84C12.78 1309 23.2 1321.24 38.4 1323.22C22.76 1335.74 21.72 1358.73 22 1378.76C24.36 1547.91 26.71 1717.05 18.65 1891.14C648.49 1885.32 1278.33 1879.5 1910.13 1869.44C1919.42 1826.39 1888.7 1785.05 1884.6 1741.2C1882.83 1722.25 1886.1 1703.23 1889.37 1684.47C1899.17 1628.14 1908.97 1571.82 1919.91 1513.73C1928.28 1428.98 1923.93 1342.98 1906.04 1260.51C1890.49 1136.95 1866.76 1014.42 1827.62 896.44C1764.89 837.1 1686.24 797.58 1606.97 763.34C1527.7 729.1 1446.17 699.05 1368.98 654C1385.93 623.76 1392.13 587.63 1387.86 552.99C1389.39 456.47 1380.52 359.78 1361.45 265.15C1373.62 273.05 1385.79 280.95 1397.96 288.84C1352.62 211.09 1282.37 148.13 1200.14 111.53C1203.19 110.31 1206.24 109.08 1209.29 107.86C1190.49 105.53 1171.06 108.45 1151.16 112.24Z" fill="white"/>
<path d="M1824.05 340.78C1727.75 367.69 1641.91 430.42 1579.88 516.19C1576.52 572.34 1578.19 628.8 1584.85 684.65C1672.53 617.43 1769.06 561.76 1870.53 518.47C1861.95 455.99 1845.61 394.57 1824.05 340.78Z" fill="white"/>
<path d="M19.79 293.19C127.32 285.94 236.3 300.76 339.66 335.87C409.04 430.12 460.24 537.71 490.77 653.4C392.89 628.67 293.41 610.27 192.22 599.14C160.04 485.14 98.96 379.43 19.79 293.19Z" fill="white"/>
<path d="M550.2 304.05C537.66 282.44 517.89 265.12 494.83 255.52C490.76 253.83 486.07 252.38 482.05 254.19C475.85 256.99 475.24 266.27 479.18 271.82C483.12 277.37 489.85 280.09 496.21 282.53C515.27 289.86 534.34 297.17 550.2 304.05Z" fill="white"/>
<path d="M545.96 402.79C531.8 420.17 507.33 428.42 485.53 423.18C480.91 422.07 476.29 420.32 472.84 417.06C469.39 413.8 467.31 408.76 468.58 404.19C470.2 398.36 476.37 395.14 482.13 393.29C502.34 386.81 525.23 389.24 545.96 402.79Z" fill="white"/>
<path d="M1200.82 594.01C1204.83 597.67 1205.66 603.96 1204.27 609C1203.81 611.98 1200.57 616.5 1197.53 613.29C1172.6 583.12 1155.19 561.87 1112.86 561.21C1094.59 561.51 1072.14 566.69 1064.35 585.23C1061.55 589.44 1061.42 600.95 1056.33 601.43C1047.03 597.76 1052.79 581.63 1055.68 574.88C1062.8 552.42 1086.5 542.04 1108.57 541.37C1135.65 539.94 1162.92 550.71 1180.9 571.16C1187.95 578.39 1194.24 586.35 1200.82 594.01Z" fill="black"/>
<path d="M914.96 586.92C922.15 597.74 915.17 616.1 908.91 601.52C901.27 585.3 885.59 571.36 867.39 569.17C854.15 568.34 841.41 576.56 835.39 588.17C832.46 594.15 831.17 600.73 830.33 607.29C829.87 610.85 829.87 620.37 824.14 618.26C814.76 611.35 823.37 582.8 827.63 573.74C850.81 530.66 897.16 550.68 914.96 586.92Z" fill="black"/>
<path d="M1108.62 662.56C1130.04 660.65 1132.13 630.71 1119.65 617.47C1116.9 614.95 1113.69 613.63 1109.96 612.93C1106.84 612.34 1103.53 611.71 1102.12 608.46C1085.13 617.93 1085.7 661.15 1108.62 662.56ZM1131.08 613.75C1142.83 635.66 1141.85 684.31 1107.86 681.92C1078.39 671.59 1074.72 628.36 1084.91 603C1088.5 594.89 1095.85 587.11 1105.26 587C1113.04 587.23 1118.9 593.82 1122.13 600.36C1125.82 604.35 1128.74 608.85 1131.08 613.75Z" fill="black"/>
<path d="M890.83 659.28C901.74 656.74 903.24 640.31 900.81 631.21C898.51 626.63 893.9 623.44 890.24 619.92C888.04 617.58 886.07 615.01 882.44 615.33C869.2 617.64 868.81 635.27 874.65 644.7C878.45 650.63 883.17 658.52 890.83 659.28ZM903.5 613.52C911.21 623.18 912.88 636.63 912.3 648.61C911.39 660.23 907.18 678.55 892.84 678.95C874.76 675.39 863.13 650.22 860.93 633.48C858.75 619.21 862.57 596.61 880.37 595.68C889.35 596.79 899.55 605.54 903.5 613.52Z" fill="black"/>
<path d="M905.43 647.11C905.75 650.72 906.63 657.01 902.1 658.18C899.98 661.92 897.69 666.74 893.38 668.19C892.28 669.23 891.05 669.2 889.71 668.84C882.58 665.64 877.15 658.81 874.52 651.53C868.56 644.1 864.89 633.99 867.47 624.53C867.23 621.92 867.23 618.89 868.78 616.64C871.08 613.68 874.46 611.71 877.53 609.64C884.22 604.37 888.17 606.84 890.59 614.39C897.32 612.44 900.25 621.26 900.59 626.49C903.11 633.02 905.98 640.05 905.43 647.11Z" fill="black"/>
<path d="M1127.89 643.13C1132.39 650.59 1131.14 661.18 1122.75 665.18C1116.7 668.32 1111.19 675.02 1107.37 665.13C1097.19 670.58 1092.01 661.42 1091.84 652.23C1085.9 647.21 1086.04 638.03 1088.07 631.14C1083.72 624.29 1084.44 614.55 1091.54 609.86C1092.48 602.43 1100.96 600.57 1106.97 598.64C1114.75 595.48 1118.17 599.25 1119.77 606.72C1124.66 608.73 1126 615.13 1126.09 619.93C1133.64 624.32 1135.11 637.75 1127.89 643.13Z" fill="black"/>
<path d="M968.92 634.6C971.04 656.51 970.06 681.8 955.8 699.79C949.31 708.67 937.39 712.44 931.72 721.82C936.61 727.62 941.57 733.45 947.28 738.47C951.9 741.33 953.67 747.11 953.47 752.31C953.62 755.34 951.33 760.38 947.73 757.86C941.24 753.04 936.04 746.76 930.72 740.74C923.24 733.26 920.09 722.25 921.39 711.85C922.74 701.39 932.59 695.92 940.16 690.04C957.84 678.07 959.56 656.24 959.17 636.71C958.02 625.68 965.84 623.84 968.92 634.6Z" fill="black"/>
<path d="M1067.73 850.52C1070.12 859.15 1071.63 871.18 1063.27 877.05C1054.81 882.93 1044.4 884.77 1034.32 884.41C1017.6 884.3 1004.85 871.57 996.35 858.35C988.8 846.53 982.9 831.44 987.87 817.53C991.69 807.4 1002.95 800.77 1013.64 802.96C1028.94 800.88 1041.51 811.59 1050.82 822.42C1058.24 830.51 1064.79 839.81 1067.73 850.52Z" fill="black"/>
<path d="M1176.21 478.8C1181.31 482.84 1176.71 492.32 1172.82 495.9C1170.47 498.28 1168.48 503.31 1164.28 502.24C1141.12 497.45 1116.99 499.69 1093.5 500.34C1075.16 501.63 1056.73 502.86 1038.39 500.91C1022.82 501.58 1022.89 489.81 1030.91 479.88C1043.86 468.99 1063.84 468.79 1079.94 467.31C1112.42 465.39 1145.23 468.54 1176.21 478.8Z" fill="black"/>
<path d="M1345.95 567.28C1347.21 571.23 1346.57 583.17 1340.37 581.61C1339.24 581.9 1338.2 582.32 1337.15 582.81C1333.56 584.81 1330.23 587.23 1327.01 589.8C1337.2 593.36 1345.87 598.72 1345.53 610.78C1346.29 623.47 1336.09 632.58 1325.83 638.16C1320.45 641.28 1314.9 644.16 1309.17 646.6C1307.7 647.24 1306.18 645.93 1305.4 644.8C1302.44 639.67 1302.02 630.37 1307.54 626.86C1316.25 623 1324.79 618.53 1332.23 612.53C1326.69 609.67 1320.39 608.2 1315.32 604.5C1307.2 597.33 1308.66 582.54 1317.24 576.29C1323.5 571.82 1342.08 552.27 1345.95 567.28Z" fill="black"/>
<path d="M1218.75 708.93C1218.79 708.91 1218.82 708.89 1218.86 708.87C1217.18 706.46 1215.38 704.13 1213.54 701.85C1212.98 701.15 1212.57 700.28 1212.27 699.35C1208.09 704.55 1209.51 709.74 1216.65 709.61C1217.38 709.46 1218.07 709.23 1218.75 708.93ZM1228.66 699.11C1232.07 706.47 1232.25 715.65 1227.77 722.58C1221.84 731.66 1209.79 731.98 1204.05 722.45C1193.19 708.74 1205.52 669.32 1212.79 687.07C1213.92 683.86 1217.41 682.48 1219.45 685.72C1222.77 689.99 1226.19 694.28 1228.66 699.11Z" fill="black"/>
<path d="M526.23 288.71C527.87 289.2 529.52 289.68 531.18 290.15C516.95 277.02 500.01 265.16 480.38 262.63C491 277.55 509.41 283.62 526.23 288.71ZM557.73 294.92C563.46 300.51 567.09 308.81 563.31 316.53C561.79 320.26 557.75 320.32 556.24 316.53C555.34 315.3 554.79 314.7 553.92 313.64C553.04 314.96 551.81 315.79 550.12 315.38C540.18 312.97 530.34 310.19 520.56 307.23C495.86 300.5 461.49 281.75 469.52 251.28C475.4 229.66 515.06 254.87 525.12 263.16C536.92 272.71 547.76 283.49 557.73 294.92Z" fill="black"/>
<path d="M524.14 402.59C506.72 402.17 487.99 402.33 472.21 410.56C480.64 412.81 489.62 411.89 498.16 410.72C507.16 409.23 515.79 406.17 524.14 402.59ZM549.54 391.47C555.55 394.8 555.47 407.76 549.69 411.28C527.15 422.03 503.56 434.07 477.81 431.63C455.48 431.97 450.73 403.11 468.01 392.21C486.58 381.47 509.34 382.02 530.14 382.87C537.1 383.82 548.7 381.88 549.54 391.47Z" fill="black"/>
<path d="M1593.61 1656.33C1576.63 1650.86 1573.26 1627.97 1584.01 1615.17C1588.02 1609.22 1601.58 1603.69 1602.99 1614.24C1624.71 1621.02 1619.05 1666.09 1593.61 1656.33ZM1602.85 1637.67C1603.62 1637.53 1604.35 1637.34 1605.08 1637.08C1605.12 1637.06 1605.17 1637.03 1605.21 1637.01C1601.38 1632.79 1595.07 1632.86 1590.54 1630.15C1590.17 1630.46 1589.81 1630.79 1589.46 1631.14C1589.28 1631.35 1589.11 1631.57 1588.94 1631.78C1592.21 1635.83 1597.7 1637.93 1602.85 1637.67Z" fill="black"/>
<path d="M1665.25 1566.12C1665.56 1566.06 1665.86 1565.98 1666.15 1565.9C1665.35 1565.25 1664.54 1564.63 1663.7 1564.03C1663.61 1564.09 1663.53 1564.15 1663.45 1564.21C1662.94 1564.65 1662.45 1565.1 1661.97 1565.57C1663 1566 1664.14 1566.21 1665.25 1566.12ZM1675.98 1553.14C1683.91 1564.78 1678.41 1588.16 1661.51 1585.84C1644.21 1581.6 1647.77 1556.14 1658.97 1546.95C1660.02 1544.34 1661.97 1541.57 1664.71 1543.15C1672.09 1539.61 1676.68 1546.12 1675.98 1553.14Z" fill="black"/>
<path d="M1735.7 1661.25C1727.53 1659.63 1732.83 1632.28 1731.7 1624.91C1731.96 1605.31 1732.26 1585.71 1730.86 1566.14C1726.3 1520 1715.57 1465.87 1689.88 1426.82C1687.07 1422.28 1688.77 1405.22 1696.34 1410.56C1709.34 1428.71 1716.99 1450.19 1723.48 1471.41C1738.4 1519.1 1743.6 1569.23 1741.76 1619.03C1740.54 1627.06 1744.88 1660.89 1735.7 1661.25Z" fill="black"/>
<path d="M1788.61 918.8C1795.33 918.98 1794.47 930.38 1792.62 934.81C1791.22 940.1 1778.39 941.15 1773.39 943.95C1736.53 956.31 1706.18 982.89 1682.46 1013.07C1679.41 1017.08 1676.5 1021.17 1673.69 1025.36C1671.3 1028.07 1670.52 1033.42 1666.46 1033.93C1646.74 1023.29 1696.05 974.94 1705.74 965.66C1728.88 943.14 1757.58 927.44 1788.61 918.8Z" fill="black"/>
<path d="M1696.31 1250.39C1704.62 1248.22 1703.64 1266.55 1698.47 1269.51C1677.32 1283.64 1656.31 1298.91 1634.55 1311.68C1628.35 1309.37 1629.44 1299.31 1631.92 1294.44C1634.86 1290.33 1639.86 1288.39 1643.88 1285.51C1661.57 1274.13 1678.89 1262.18 1696.31 1250.39Z" fill="black"/>
<path d="M1726.71 936.61C1677.87 913.89 1628.86 891.65 1580.92 867.1C1564.69 859.42 1546.46 855.7 1531.78 844.99C1517.57 835.06 1510.26 816.72 1490.38 827.15C1486.22 826.21 1485.8 820.42 1485.91 816.9C1485.39 804.66 1501.09 802.44 1510.26 805.16C1520.05 809.26 1525.84 819.13 1534.41 825.07C1545.1 833.48 1558.31 837.25 1570.78 842.14C1600.97 853.92 1628.44 871.45 1658.21 884.2C1682.09 894.78 1705.78 905.78 1729.38 916.99C1735.28 920.09 1734.21 937.27 1726.71 936.61Z" fill="black"/>
<path d="M777.21 561.37C774 552.61 771.14 543.74 768.77 534.74C767.41 537.11 766.05 539.49 764.69 541.86C768.81 548.4 773 554.89 777.21 561.37ZM819.9 660.38C819.84 660.2 819.78 660.01 819.72 659.83C819.57 659.87 819.42 659.9 819.27 659.91C819.48 660.07 819.69 660.23 819.9 660.38ZM1030.63 951C1030.2 950.29 1029.98 949.55 1030.02 948.77C1030 948.63 1029.99 948.48 1029.98 948.34C1018.67 941.93 1007.45 935.23 996.41 928.25C996.66 928.97 996.85 929.79 996.98 930.68C998.11 937.93 994.46 944.84 993.03 951.84C988.56 968.05 982.39 983.64 979.69 1000.25C994.71 997.75 1013.54 965.33 1030.63 951ZM1181.84 171.1C1165.31 167.13 1154.15 153.85 1158.66 136.48C1152.69 133.6 1143.18 133.08 1141.46 125.42C1141.36 125.14 1141.28 124.82 1141.21 124.46C1139.21 124.22 1137.57 122.98 1136.52 120.28C1132.31 124.09 1129.46 116.74 1129.37 113.29C1126.36 107.86 1122.75 102.82 1118.94 97.92C1091.95 65.33 1036.77 67.85 998.02 69.44C934.14 74.42 873.55 101.69 822.43 139.53C801.59 155.86 759.69 189.58 759.83 217.44C801.85 181.94 795.64 273.55 758.42 240.78C722.56 279.1 687.54 334.5 676.73 386.21C665.02 464.16 699.71 542.75 751.54 599.71C770.86 620.84 792.61 639.8 815.47 657.07C813.94 654.25 813.75 650.59 812.62 647.64C809.68 638.54 804.93 630.19 800.24 621.89C779.14 588.6 755.62 556.55 737.73 521.33C707.82 452.82 740.15 364.04 781.62 306.64C776.04 308 770.41 311.05 764.56 309.99C757.97 306.54 758.69 296.4 761.29 290.5C771.09 276.3 786.38 266.66 799.33 255.49C817.87 240.64 837.94 227.72 856.17 212.5C844.97 171.03 893.49 146.31 926.57 136.86C941.99 132.48 957.82 129.65 973.78 128.25C989.28 124.71 994.86 135.99 990.83 149.57C1034.19 137.45 1079.12 131.07 1124.17 132.28C1139.75 134.21 1132.24 159.49 1128.48 169.06C1123.53 182.59 1117.91 195.87 1113.34 209.52C1135.23 195.25 1155.66 176.8 1181.84 171.1ZM1215.73 40.1C1187.75 41.24 1157.16 75.97 1144.53 99.36C1150.73 94.72 1158.85 94.01 1165.3 90.2C1184.66 76.57 1203.9 60.97 1215.73 40.1ZM1205.07 1050.16C1203.12 1045.68 1201.1 1041.19 1198.85 1036.56C1196.74 1031.76 1194.01 1026.67 1192.68 1021.43C1183.15 1008.21 1177.13 990.11 1169.05 977.09C1161.57 962.95 1153.48 949.13 1146.16 934.9C1144.41 932.55 1144.06 926.7 1145.11 922.6C1126.74 936.97 1108.02 948.25 1090.02 954.65C1098 960.64 1108.1 963.58 1115.2 970.63C1124.14 981.56 1124.43 996.45 1128.28 1009.48C1130.95 1018.75 1141.91 1020.47 1149.85 1023.22C1164.91 1027.24 1179.65 1032.5 1192.53 1041.47C1195.27 1043.54 1200.16 1046.66 1205.07 1050.16ZM1301.2 223.09C1285.02 233.69 1266.34 240.93 1251.41 253.2C1239.84 274.79 1230.67 267.84 1211.26 272.58C1210.03 287.57 1205.13 292.37 1197.64 293.53C1204.23 299.33 1211.02 304.89 1218.11 310.06C1218.64 308.73 1219.43 307.54 1220.56 306.61C1227.02 302.7 1232.15 297.15 1237.36 291.77C1259.71 269.89 1280.08 246.12 1301.2 223.09ZM1290.24 722.29C1290.33 722.27 1290.42 722.25 1290.52 722.22C1290.19 722.27 1289.85 722.26 1289.45 722.22C1289.71 722.25 1289.97 722.27 1290.24 722.29ZM1368.63 699.9C1368.27 696.64 1367.75 693.38 1367.08 690.13C1366.1 683.01 1361.35 676.39 1363.57 669.06C1363.67 668.72 1363.78 668.35 1363.93 667.98C1360.66 671.09 1357.16 674.1 1353.5 676.97C1355.94 678.88 1357.15 683.34 1359.06 685.52C1362.16 690.37 1365.39 695.14 1368.63 699.9ZM1368.88 723.44C1368.71 723.26 1368.55 723.07 1368.38 722.87C1363.2 712.44 1344.1 694.58 1347.12 681.7C1329.62 693.93 1309.09 702.46 1289.6 702.36C1290.67 702.63 1291.83 703.76 1293.02 706.11C1296.88 715.17 1291.67 724.88 1290.5 734.08C1286.8 750.17 1282.71 766.17 1278.42 782.11C1261.67 844.07 1238.34 904.66 1205.29 959.83C1204.75 960.49 1204.12 961.45 1203.41 962.61C1202.89 964.88 1201.55 966.79 1199.97 968.59C1198.31 972.23 1196.59 975.84 1194.77 979.4C1195.13 983.18 1195.15 988.76 1191.23 990.7C1190.86 991.04 1190.49 991.31 1190.13 991.52C1192.59 995.86 1195.39 1000.83 1197.52 1005.61C1198.36 1005.75 1199.18 1006.31 1199.86 1007.44C1201.68 1010.23 1201.74 1013.8 1203.33 1016.75C1209.42 1029.78 1215.3 1042.91 1220.82 1056.2C1221.77 1058.12 1222.71 1060.17 1223.45 1062.29C1225 1042.58 1269.86 1013.22 1275.75 999C1269.1 970.95 1251.95 945.08 1274.59 919.8C1306.36 874.23 1341.19 829.65 1357.04 775.51C1362.66 758.71 1367.43 741.16 1368.88 723.44ZM1387.54 590.4C1387.56 590.79 1387.57 591.19 1387.59 591.58C1387.11 572.36 1379.21 551.56 1361.9 541.88C1341.09 533.16 1320.95 544.41 1309.05 561.43C1309.58 562.33 1309.95 563.33 1310.07 564.19C1313.53 574.87 1303.95 581.86 1297.37 588.6C1290.46 594.9 1278.21 610.68 1268.32 602.5C1256.82 590.86 1255.59 573.12 1251.4 558.05C1244.33 526.9 1234.95 496.33 1227.03 465.39C1219.26 438.89 1213.48 410.43 1196.77 387.85C1188.06 376.67 1175.09 370.49 1161.89 366.21C1119.04 354.26 1098.46 328.6 1082.11 288.64C1075.64 273.68 1070.66 258.17 1065.76 242.64C1065.62 242.23 1065.47 241.82 1065.33 241.41C1060.04 259.22 1046.46 280.45 1039.56 291.89C1008.33 337.44 968.45 376.92 925.31 411.22C913.03 419.23 886.24 444.31 871.94 433.9C863.11 426.03 864.19 412.22 866.16 401.66C840.39 436.59 811.58 469.23 787.16 505.18C786 506.84 784.85 508.52 783.73 510.2C785.9 507.97 788.21 505.84 790.27 503.58C801.92 491.69 817.38 484.07 833.42 480.09C845.44 477.89 866.23 473.63 876.52 481.27C879.68 484.38 879.39 489.56 878.14 493.48C875.91 501.4 868.97 506.94 860.9 507.99C842.53 511.17 824.11 514.17 806.31 519.84C799.33 522.12 792.5 524.63 785.97 528.01C783.49 528.92 781.37 531.7 778.76 532.05C779.18 533.77 779.61 535.49 780.06 537.2C787.66 565.11 800.29 591.18 812.95 617.07C821.25 635.24 829.72 653.66 833.97 673.27C837.29 691.28 836.12 709.91 841.5 727.59C857.21 782.47 895.85 832.32 937.98 869.97C960.02 889.01 984.91 904.23 1009.56 919.59C1017.03 924.22 1024.55 928.86 1032.26 933.09C1033.25 933.44 1034.17 933.89 1035.03 934.44C1035.43 934.21 1035.86 934.02 1036.32 933.87C1051.5 940.79 1064.48 943.09 1081.02 938.66C1145.12 918.59 1193.89 859.96 1232.61 807.57C1248.02 786.01 1260.11 762.32 1268.32 737.11C1273.32 722.46 1277.22 707.46 1281.25 692.52C1281.82 690.4 1282.87 688.14 1284.48 686.6C1285.14 686.08 1285.73 685.73 1286.28 685.52C1287.29 683.69 1288.83 682.65 1290.94 683.16C1290.59 682.93 1290.19 682.93 1289.79 682.86C1334.67 679.96 1389.22 638.25 1387.53 590.01C1387.53 590.14 1387.54 590.27 1387.54 590.4ZM1468.52 940.29C1472.6 869.68 1479.04 797.79 1467.94 727.59C1466.81 722.75 1463.87 718.67 1459.66 716.01C1436.45 699.98 1413.7 682.77 1387.99 670.89C1378.32 668.64 1375.78 661.1 1378.5 652.07C1378.53 651.85 1378.57 651.65 1378.62 651.46C1377.99 652.33 1377.33 653.19 1376.67 654.04C1373.86 657.63 1370.72 661.19 1367.3 664.66C1367.55 664.64 1367.81 664.66 1368.08 664.71C1368.08 664.71 1368.08 664.71 1368.09 664.71C1374.19 668.19 1374.2 677.49 1376.16 683.64C1382.28 711.85 1379.26 741.3 1371.46 768.87C1357.81 822.35 1329.75 869.74 1297 913.62C1292.46 920.14 1287.88 926.61 1283.34 933.13C1284 932.88 1284.66 932.65 1285.32 932.45C1285.53 932.36 1285.74 932.29 1285.94 932.24C1288.35 927.61 1292.55 923.52 1296.21 919.89C1303.09 912.86 1314.08 913.34 1322.7 916.51C1343.13 920.96 1380.33 980.31 1395.34 999.01C1409.38 1018.55 1422.27 1039.63 1441.39 1054.73C1443.24 1056.01 1447.28 1058.75 1448.09 1055.29C1449.79 1049.73 1451.07 1044.03 1452.48 1038.39C1460.82 1006.25 1466.23 973.43 1468.52 940.29ZM1699.54 1564.79C1700.52 1536.09 1690.25 1508.4 1683.47 1480.86C1676.11 1455.7 1670.84 1428.91 1656.57 1406.58C1648.41 1396.32 1636.96 1389.41 1626.62 1381.57C1601.55 1365.02 1579.07 1345.11 1556.33 1325.58C1557.6 1328.17 1558.67 1330.87 1559.55 1333.65C1565.17 1349.29 1569.24 1365.45 1573.28 1381.55C1581.98 1421.94 1588.25 1464.76 1575.76 1505.05C1566.24 1536.73 1552.07 1569.13 1525.03 1589.67C1512.89 1598.31 1498.48 1606.43 1483.45 1610.17C1489.71 1615.32 1495.86 1620.6 1501.77 1626.15C1521.73 1646.58 1542.69 1672.04 1572.84 1675.61C1595.18 1674.95 1633.07 1657.29 1651.66 1644.45C1675.3 1624.29 1695.57 1596.21 1699.54 1564.79ZM1872.5 1714.23C1886.54 1690.5 1895.04 1677.13 1885.62 1649.45C1877.31 1620.33 1871.17 1590.54 1861.25 1561.9C1848.64 1527.36 1822.6 1500.58 1798.16 1474.02C1772.03 1445.05 1748.09 1414.12 1722.15 1385.04C1712.65 1375.3 1698.65 1372.4 1685.86 1376.78C1676.87 1379.28 1667.72 1381.92 1659.16 1385.74C1662.76 1389.72 1665.91 1394.1 1668.39 1399.06C1682.58 1428.2 1689.31 1460.24 1698.03 1491.28C1704.97 1518.69 1713.13 1547.12 1708.28 1575.56C1700.74 1613.03 1677.21 1648.62 1645.05 1669.44C1623.26 1680.37 1595.23 1695.4 1570.69 1695.51C1567.84 1695.13 1565.07 1694.57 1562.37 1693.85C1564.19 1696.12 1565.74 1697.99 1566.69 1698.7C1587.59 1721.66 1612.44 1744.17 1643.44 1751.42C1658.94 1754.43 1674.85 1753.63 1690.39 1756.33C1724.15 1762.72 1759.67 1772.66 1792.65 1757.59C1805.33 1752.94 1817.65 1746.58 1831.21 1744.88C1850.01 1745.87 1862.62 1728.04 1872.5 1714.23ZM1927.48 1444.3C1926.05 1456.41 1928.3 1530.36 1917.6 1528.31C1919.8 1546.47 1918.3 1564.85 1915.8 1582.88C1912.94 1602.83 1908.42 1622.5 1903.62 1642.07C1902.32 1645.01 1901.43 1654.22 1898.98 1659.29C1899.69 1664.32 1900.08 1669.4 1900.05 1674.52C1897.28 1704.73 1865.84 1765.3 1831.53 1764.71C1800.83 1770.8 1774.18 1790.42 1741.24 1785.28C1720.1 1783.29 1699.65 1777.07 1678.54 1774.9C1667.96 1773.86 1657.29 1773.78 1646.76 1772.18C1604.62 1764.79 1573.13 1731.22 1547.02 1699.6C1544.68 1696.22 1544.04 1691.12 1545.27 1686.85C1525.95 1676.14 1510.36 1657.97 1495.06 1642.51C1488.17 1636.22 1481 1630.26 1473.74 1624.4C1470.51 1621.37 1470.44 1616.27 1471.15 1612.13C1464.18 1612.63 1457.17 1611.99 1450.29 1609.84C1437.95 1605.65 1432.92 1592.63 1431.28 1580.7C1426.09 1552.55 1425.69 1523.43 1423.86 1495C1422.78 1481.59 1421.41 1468.18 1418.32 1455.07C1416.28 1448.84 1413.13 1435.66 1421.52 1433.17C1427.94 1434.58 1430.53 1463.65 1431.85 1470.45C1435.8 1502.97 1434.74 1535.91 1440.03 1568.28C1440.96 1584.03 1448.87 1592.53 1465.07 1592.34C1491.66 1591.98 1517.44 1578.06 1535.29 1558.82C1552.41 1539.81 1561.56 1515.39 1568.54 1491.14C1574.9 1467.33 1573.28 1442.37 1569.15 1418.32C1566.47 1400.47 1562.44 1382.89 1557.35 1365.58C1554.09 1354.42 1551.2 1342.85 1544.71 1333.04C1533.08 1318.4 1512.11 1319.05 1495.9 1312.69C1492.87 1310.61 1491.86 1306.72 1492.13 1302.83C1491.47 1302.9 1490.79 1302.99 1490.11 1303.07C1483.18 1300.91 1484.47 1287.18 1489.39 1283.5C1498.78 1282.46 1508.64 1281.55 1518.14 1282.55C1539.49 1285.83 1555.02 1302.43 1570.91 1315.62C1577.37 1321.21 1583.82 1326.8 1590.37 1332.29C1588.6 1320.34 1591.26 1307.76 1594.72 1296.34C1594.8 1296.05 1594.89 1295.77 1594.98 1295.48C1594.86 1295.39 1594.73 1295.31 1594.6 1295.21C1571.25 1270.3 1564.31 1235.51 1556.4 1203.4C1546.63 1161.16 1539.97 1117.78 1541.88 1074.33C1544.24 1010.12 1570.06 1047.21 1553.6 1058.13C1546.44 1120.21 1561.04 1183.25 1579.01 1242.42C1582.72 1252.27 1587.69 1261.58 1593.76 1270.18C1595.32 1272.71 1597.74 1274.79 1599.59 1277.14C1599.57 1275.28 1599.3 1273.42 1598.66 1271.55C1565.55 1201.78 1592.72 1153.52 1616.08 1086.83C1621.46 1073.42 1627.9 1089.52 1624.47 1096.47C1611.09 1139.21 1584.83 1183.11 1595.97 1229.09C1602.37 1249.92 1614.9 1269.09 1607.59 1291.7C1604.95 1301.81 1600.29 1311.55 1599.92 1322.15C1599.92 1327.99 1603.33 1333.53 1600.93 1339.41C1600.83 1339.85 1600.7 1340.27 1600.55 1340.66C1607.23 1346 1614.05 1351.16 1621.11 1356C1629.06 1362 1637.8 1367.52 1645.85 1373.73C1648.54 1370.08 1653.06 1368.3 1657.09 1366.52C1670.34 1361.19 1684.05 1355.98 1698.39 1354.77C1729.27 1354.79 1743.61 1390.13 1762.91 1409.2C1790.06 1442.7 1821.48 1473.15 1847.13 1507.45C1866.91 1534.05 1875.88 1566.2 1883.59 1597.94C1886.3 1610.71 1890.48 1623.34 1893.95 1636.07C1896.02 1628.75 1898.33 1621.61 1898.8 1616.93C1902.73 1600.01 1905.96 1582.9 1907.75 1565.61C1908.78 1552.36 1909.31 1539.81 1906.55 1526.91C1904.05 1518.58 1898.28 1513.31 1903.3 1503.95C1907.83 1497.4 1911.49 1504.01 1913.8 1510.82C1914.43 1499.76 1916.67 1486.65 1916.06 1481.35C1919.29 1427.74 1915.92 1373.94 1910.76 1320.55C1900.18 1239.38 1883.65 1159.07 1869.84 1078.4C1860.22 1028.44 1852.89 977.71 1838.76 928.79C1830.15 899.17 1806.33 885.68 1781.49 871.01C1722.84 834.4 1660.03 805.41 1597.81 775.53C1568.34 761.36 1539.57 745.78 1510.17 731.48C1499.91 726.7 1489.49 722.09 1478.4 719.61C1477.52 719.53 1476.76 719.32 1476.09 719C1484.45 747.07 1482 777.8 1483.93 806.81C1483.14 881.72 1482.03 957.76 1465.85 1031.19C1463.54 1041.39 1461.03 1051.53 1458.4 1061.65C1456.7 1070.92 1451.15 1082.21 1440.41 1074.36C1410.09 1050.97 1392.69 1015.23 1368.98 985.8C1362.71 977.29 1356.34 968.86 1349.48 960.82C1341.79 953.01 1336.19 941.9 1325.81 937.46C1303.79 926.64 1296.85 944.77 1291.52 949.16C1291.12 950.01 1290.61 950.69 1290 951.13C1285.4 953.4 1280.48 955.06 1276.04 957.69C1275.52 957.99 1274.96 958 1274.42 957.84C1274.79 959.1 1275.26 960.46 1275.82 961.95C1285.01 992.84 1295.77 1009.63 1266.7 1033.84C1254.74 1045.56 1242.02 1056.74 1232.34 1070.51C1231.49 1071.87 1230.25 1073.33 1228.54 1072.9C1226.86 1071.62 1225.63 1070.24 1224.79 1068.76C1224.9 1071.17 1224.49 1073.58 1223.26 1075.89C1222.24 1078.46 1219.93 1079.3 1218.13 1078.29C1216.97 1079.6 1215.35 1079.98 1213.23 1078.54C1201.74 1068.61 1189.34 1059.58 1175.85 1052.55C1162.26 1045.73 1146.73 1044.04 1133.11 1037.39C1126.09 1033.84 1121.69 1026.95 1119.64 1019.51C1110.45 979.31 1115.36 992.42 1082.61 970.84C1078.39 970.05 1076.77 963.76 1077.47 958.36C1070.57 959.94 1063.83 960.7 1057.29 960.54C1054.59 960.44 1049.01 959.56 1043.59 958C1043.5 959.01 1043.35 959.9 1043.14 960.57C1042.35 965.51 1037.18 967.12 1033.87 970.12C1030.28 973.24 1026.96 976.57 1023.85 980.17C1014.05 990.4 993.4 1021.18 979.08 1020.22C958.78 1014.56 976.05 971.16 979.76 957.28C982.6 948.27 985.18 939.17 987.56 930.03C988.15 927.12 989.24 925.31 990.48 924.49C977.75 916.29 965.27 907.72 953.17 898.81C910.65 866.06 871.61 820.43 847.42 770.38C846.02 772.15 842.65 771.65 841.13 772.25C816.64 778.34 807.4 792.12 802.68 816.01C797.45 841.71 796.97 869.69 797.31 895.46C798.47 900.31 794.13 910.62 789.37 903.19C784.78 891.47 787.94 877.82 787.41 865.43C787.75 854.29 788.34 843.18 789.37 832.08C792.78 797.67 801 758.85 839.5 752.5C836.23 744.38 833.38 736.17 830.97 727.91C826.37 714.03 825.69 699.54 824.3 685.15C823.31 684.67 822.23 683.87 821.07 682.69C725.52 615.15 654.27 512.55 665.6 391.22C673.6 330.4 710.85 271.49 750.79 226.07C737.59 161.59 853.82 92.38 905.02 72C949.9 53.16 999.24 45.45 1047.73 49.48C1082.17 51.67 1115.93 61.61 1133.42 93.92C1144.36 68.46 1163.31 46.33 1186.33 30.97C1196.05 25.53 1207.84 16.71 1219.38 21.12C1242.36 40.6 1209.98 74.44 1194.49 88.76C1213.42 89.55 1246.24 91.89 1238.55 119.06C1318.87 139.25 1381.28 205.98 1408.03 282.9C1411.15 295.33 1423.97 313.69 1417.4 325.56C1415.32 328.92 1411.76 327.12 1410.63 324.11C1405.86 322.79 1399.75 319.04 1394.37 315.74C1400.28 359.82 1411.06 403.34 1411.46 448.07C1412.08 469.56 1408.14 490.83 1405.32 512.05C1404.15 515.43 1402.27 536.07 1398.68 548C1399.35 552.05 1398.4 556.58 1396.18 559.62C1395.55 560.87 1394.7 562.58 1393.71 564.1C1402.01 592.9 1396.87 625.54 1379.65 650.04C1387.36 644.93 1430.44 676.02 1436.23 679.33C1448.12 688.82 1464.06 695.09 1472.17 708.39C1472.3 706.91 1472.58 705.49 1472.93 704.28C1470.77 681.6 1596.66 757.28 1611.93 761.46C1665.96 787.16 1720.09 812.76 1771.46 843.57C1811.27 867.8 1838.76 879.05 1850.87 928.32C1874.39 1029.61 1889.79 1132.63 1908.42 1234.89C1921.51 1303.89 1927.45 1374.1 1927.48 1444.3Z" fill="black"/>
<path d="M745.5 993.63C738.98 979.44 754.59 964.62 768.59 965.59C794.85 964.95 820.95 968.77 847.17 969.31C853.37 970.93 852.91 981.69 850.7 986.38C850.02 987.73 848.86 989.31 847.16 989.31C837.76 989.31 828.36 988.4 818.98 987.83C804.58 986.82 790.18 985.54 775.72 985.6C767.11 984.98 757.12 985.56 752.37 993.98C750.69 997.58 746.96 997.17 745.5 993.63Z" fill="black"/>
<path d="M861.74 1021.85C858.56 1019.35 858.59 1014.71 857.18 1011.19C854.57 1003.01 851.59 994.54 845.76 988.07C836.93 985 841.47 958.89 851.57 971.62C859.38 981.21 869.1 1003.19 868.07 1015.52C867.71 1018.47 865.51 1023.93 861.74 1021.85Z" fill="black"/>
<path d="M685.05 1042.72C665.94 1031.54 669.17 999.92 668.32 980.65C668.1 958.63 669.01 935.34 681.51 916.36C696.08 895 714.07 873.72 737.08 861.29C763.82 850.14 770.42 868.98 779.69 889.48C786.17 903.09 794.81 915.47 802.54 928.36C808.03 937.5 812.93 946.93 817.64 956.48C821.44 963.37 825.99 971.32 822.03 979.17C820.36 982.97 816.6 982.98 814.96 979.17C805.17 958.81 793.83 939.32 781.66 920.3C774.02 908.52 769.51 895.06 762.36 883.05C744.83 867.36 722.44 892.47 709.98 904.25C697.85 917.56 684.66 931.68 680.23 949.62C677.56 965.13 678.23 981.01 678.52 996.69C678.97 1003.55 679.08 1010.64 681.71 1017.09C692.1 1037.29 720.56 1011.16 725.47 997.77C732.97 981.85 725.11 962.81 735.3 947.68C737.63 944.8 740.66 935.91 744.88 936.75C748.86 938.71 749.18 944.32 749 948.24C748.89 953.7 744.64 957.59 742.19 962.14C737.41 968.96 739.94 977.44 739.1 985.18C738.69 991.32 737.62 997.38 735.78 1003.26C730.95 1019.16 720.1 1033.63 704.99 1040.99C698.88 1044.06 691.49 1045.96 685.05 1042.72Z" fill="black"/>
<path d="M625.4 941.52C621.6 918.38 634.48 895.97 645.69 876.59C653 866.99 664.33 846.59 678.62 851.77C690.1 856.61 702.96 861.16 709.87 872.24C714.26 878.65 718.75 886.76 715.62 894.6C714.75 897.96 710.91 900.56 708.63 896.76C706.82 893 704.88 889.32 702.25 886.06C697.42 879.76 689.58 877.34 682.74 873.88C670.79 866.81 666.2 874.18 658.78 882.83C648.48 895.78 640.98 910.84 635.83 926.52C633.31 931.83 636.16 937.5 634.6 942.97C632.45 951.4 626.43 948.99 625.4 941.52Z" fill="black"/>
<path d="M1053.03 1271.91C1041.19 1270.95 1033.36 1260.57 1032.45 1249.23C1029.81 1218.68 1049.22 1191.05 1062.95 1165.36C1080 1137.27 1106.57 1096.98 1138.92 1086.66C1155.78 1081.5 1172.73 1081.18 1189.89 1078.3C1200.15 1076.59 1210.39 1074.71 1220.55 1072.52C1255.33 1063.34 1280.68 1064.23 1299.7 1098.71C1304.74 1107.89 1312.06 1117.74 1311.82 1128.56C1311.64 1131.69 1310.19 1137.52 1306.07 1136.81C1303.06 1135.59 1302.68 1131.79 1301.41 1129.19C1299.78 1125.52 1297.95 1121.96 1295.96 1118.48C1285.24 1099.15 1274.24 1087.19 1250.66 1087.35C1237.18 1088.02 1224.22 1092.27 1210.97 1094.53C1192.35 1098.47 1173.39 1100.4 1154.59 1103.09C1129.56 1106.09 1111.17 1122.59 1096.26 1141.76C1075.93 1166.4 1060.53 1194.3 1047.35 1223.13C1044.94 1230.17 1039.6 1240.06 1043.38 1247.16C1049.5 1253.69 1059.73 1252.78 1067.15 1249.09C1077.07 1243.93 1083.31 1234.05 1087.57 1224.03C1091.74 1214.63 1093.45 1203.72 1100.7 1196.01C1107.59 1188.63 1116.65 1183.79 1125.05 1178.37C1133.8 1172.91 1142.43 1167.26 1151.14 1161.74C1159.28 1156.04 1168.04 1151.39 1177.85 1149.37C1181.6 1148.35 1185.36 1147.35 1189.12 1146.35C1190.73 1145.92 1192 1146.87 1192.88 1148.15C1195.84 1153.05 1196.23 1162.91 1190.74 1166.09C1178.14 1169.24 1165.43 1172.21 1154.95 1180.3C1139.71 1190.51 1123.51 1199.31 1108.85 1210.35C1099.98 1217.17 1099.24 1229.2 1094.44 1238.63C1087.4 1255.37 1073.03 1273.46 1053.03 1271.91Z" fill="black"/>
<path d="M1109.85 1354.61C1092.82 1349.97 1090.02 1331.03 1094.02 1316.13C1097.39 1301.27 1100.54 1286.36 1103.97 1271.51C1109.27 1250.33 1122.51 1232.42 1135.71 1215.47C1145.24 1202.83 1154.33 1189.83 1164.38 1177.59C1173.52 1164.84 1187.55 1157.87 1201.93 1152.66C1226.2 1142.68 1251.13 1134.22 1276.71 1128.3C1303.78 1122.01 1333.72 1116.97 1348.14 1147.01C1352.96 1156.19 1357.38 1165.65 1363.93 1173.77C1366.54 1177.2 1370.62 1179.85 1370.91 1184.52C1371.51 1188.74 1371.27 1194.26 1367.74 1197.17C1363.72 1199.32 1359.9 1191.55 1357.41 1189.14C1350.27 1180.1 1345.59 1169.53 1340.13 1159.48C1337.14 1154.26 1332.97 1149.72 1327.5 1147.08C1298.2 1133.27 1218.52 1165.98 1188.33 1178.86C1179.8 1182.81 1173.42 1189.76 1167.63 1196.97C1158.09 1208.9 1149.35 1221.44 1140.09 1233.59C1129.8 1246.94 1119.31 1260.73 1113.9 1276.89C1109.66 1293.99 1105.84 1311.26 1102.4 1328.54C1108.4 1337.92 1121.29 1336.18 1129.85 1331.56C1138.52 1327.12 1144.76 1319.5 1149.53 1311.17C1159.16 1296.97 1157.68 1278.56 1166.97 1264.32C1185.34 1240.22 1221.73 1227.33 1249.1 1215.9C1262.14 1210.81 1275.24 1205.89 1288.37 1201.05C1289.91 1200.48 1291.32 1201.67 1292.13 1202.85C1295.14 1207.93 1295.48 1217.35 1289.99 1220.79C1252.55 1235.34 1212.65 1247.11 1180.57 1272.09C1170.46 1279.69 1168.82 1290.14 1166.31 1301.67C1164.77 1307.42 1162.77 1312.92 1160.26 1318.32C1151.61 1337.61 1133.25 1359.28 1109.85 1354.61Z" fill="black"/>
<path d="M1173.2 1402.77C1145.8 1380.77 1173.2 1343.79 1185.19 1320.34C1197.51 1300.94 1208.19 1280.53 1221.12 1261.58C1230.16 1248.27 1243.12 1238.51 1257.41 1231.42C1271.19 1223.75 1285.11 1216.36 1299.08 1209.06C1323.85 1196.86 1362.76 1174.49 1389.35 1190.55C1400.66 1196.56 1416.43 1224.97 1404.38 1234.89C1399.15 1235.48 1399.11 1228.23 1398.22 1224.83C1397.01 1221.27 1394.84 1218.13 1392.62 1215.13C1364.83 1182.97 1289.05 1237.15 1258.85 1251.35C1235.2 1261.83 1221.34 1284.36 1209.62 1305.99C1200.8 1320.91 1191.14 1335.33 1183.3 1350.82C1179.43 1358.39 1175.28 1365.88 1172.58 1373.98C1170.06 1378.68 1173.61 1382.51 1177.77 1384.62C1194.57 1390.38 1212.99 1381.66 1226.01 1371.09C1246.59 1352.89 1257.08 1326.71 1272.92 1304.77C1275.22 1300.99 1279.05 1303.56 1279.91 1306.93C1281.41 1311.4 1281.35 1316.82 1278.82 1320.91C1273.02 1329.38 1267.56 1338.09 1262.24 1346.87C1248.98 1369.8 1232.81 1393.84 1206.72 1403.03C1196.28 1406.7 1183.1 1408.77 1173.2 1402.77Z" fill="black"/>
<path d="M1238.89 1390.99C1232.64 1378.1 1241.6 1364.2 1245.84 1352.01C1254.78 1332.61 1263.24 1312.18 1277.57 1296.04C1284.95 1288.21 1294.34 1282.87 1303.47 1277.35C1320.82 1266.91 1338.38 1256.82 1355.64 1246.23C1362.18 1243.57 1362.96 1256.38 1361.66 1260.32C1359.92 1267.29 1351.12 1268.9 1345.99 1272.98C1332.34 1281.14 1318.59 1289.13 1304.97 1297.34C1295.79 1302.86 1286.33 1308.35 1279.52 1316.81C1266.06 1335.18 1256.67 1356.41 1248.51 1377.58C1269.14 1381.81 1288.24 1366.9 1301.48 1352.6C1311.15 1340.64 1323.08 1330.84 1336.99 1324.17C1355.46 1315.02 1375.99 1311.6 1395.97 1307.29C1400.91 1305.2 1403.1 1311.43 1403.24 1315.24C1403.45 1319.08 1403.08 1324.9 1399.11 1326.73C1371.19 1332.4 1341.67 1337.65 1319.2 1356.51C1304.59 1370.94 1291.67 1388.57 1271.37 1395.3C1261.12 1398.78 1245.68 1401.88 1238.89 1390.99Z" fill="black"/>
<path d="M1475.82 1303.82C1465.68 1292.93 1452.84 1285.16 1442.45 1274.57C1435.74 1267.6 1430.11 1259.61 1422.69 1253.32C1411.18 1242.41 1399.4 1246.43 1397.31 1240.97C1395.09 1235.94 1394.56 1225.91 1400.85 1223.9C1404.84 1224.43 1408.83 1225.21 1412.65 1226.5C1430.9 1233.14 1439.95 1251.88 1454.36 1263.65C1463.41 1270.7 1472.42 1277.79 1480.42 1286.05C1483.5 1289.63 1483.56 1295.13 1482.56 1299.53C1482.06 1302.55 1478.94 1306.99 1475.82 1303.82Z" fill="black"/>
<path d="M1492.06 1313.88C1487.58 1310.64 1483.22 1307.16 1478.3 1304.6C1476.35 1303.6 1473.91 1303.34 1472.65 1301.34C1469.69 1296.26 1469.26 1286.81 1474.79 1283.4C1479.68 1283.21 1497.78 1294.53 1498.07 1299.79C1499.35 1303.99 1498.77 1316.29 1492.06 1313.88Z" fill="black"/>
<path d="M873.66 1680.42C862.88 1678.32 864.2 1648.74 860.84 1639.28C858.76 1628.29 854.98 1612.55 867.24 1606.26C883.28 1597.03 900.45 1589.95 916.94 1581.56C967.47 1554.87 1019.01 1530.12 1070.31 1505.08C1142.34 1468.26 1209.72 1423.09 1280.01 1383.15C1317.54 1360.35 1354.75 1336.82 1394.1 1317.23C1393.36 1310.34 1396.43 1303.15 1404.67 1305.54C1417.43 1306.92 1419.38 1358.97 1417.23 1369.31C1413.32 1385.14 1382.56 1395.84 1369.01 1403.98C1273.97 1449.08 1183.66 1502.78 1094 1557.55C1065.41 1575.81 1034.44 1589.86 1005.39 1607.32C976.31 1624.47 947.28 1641.73 917.86 1658.28C908.49 1663.52 899.18 1668.87 889.69 1673.9C884.51 1676.32 879.46 1680.01 873.66 1680.42ZM871.77 1640.74C872.38 1644.15 872.96 1647.56 873.47 1650.99C873.94 1654.09 874.32 1657.19 874.88 1660.27C937.35 1630 994.65 1589.77 1056.67 1558.48C1154.75 1501.31 1250.45 1439.49 1353.45 1391.21C1353.41 1391.23 1353.36 1391.25 1353.32 1391.28C1353.27 1391.3 1353.23 1391.33 1353.18 1391.35C1371.71 1381.46 1391.99 1373.54 1408.18 1359.97C1407.45 1354.83 1407.66 1324.31 1401.99 1325.21C1402.33 1330.49 1400.49 1335.79 1395 1337.33C1375.76 1346.86 1357.14 1357.65 1338.65 1368.54C1309.22 1385.9 1280.36 1404.2 1250.72 1421.2C1191.2 1455.66 1133.56 1493.92 1072.06 1524.78C1004.02 1557.76 936.32 1591.56 869.1 1626.09C869.83 1630.99 870.89 1635.86 871.77 1640.74Z" fill="black"/>
<path d="M1400.11 1412.08C1393.79 1410.02 1394.38 1400.04 1396.57 1395.01C1397.29 1393.55 1398.65 1391.83 1400.49 1392.11C1410.36 1391.89 1419.72 1387.93 1428.92 1384.66C1436.42 1381.79 1443.92 1378.91 1451.27 1375.69C1457.85 1375.26 1457.79 1387.13 1456.11 1391.46C1455.02 1397.35 1431.3 1403.39 1425.05 1406.44C1417 1409.13 1408.72 1412.21 1400.11 1412.08Z" fill="black"/>
<path d="M1534.8 1574.13C1524.04 1562.27 1514.09 1549.66 1503.07 1538C1489.01 1523.05 1473.88 1509.07 1461.02 1493.03C1441.18 1468.75 1426.46 1439.27 1399.65 1421.58C1391.38 1420.97 1391.94 1390.59 1407.52 1405.85C1431.92 1424.13 1446.65 1451.15 1465.15 1474.7C1477.97 1490.69 1492.93 1504.73 1507.03 1519.56C1518.3 1531.4 1528.42 1544.27 1539.39 1556.36C1543.91 1560.05 1542.96 1579.28 1534.8 1574.13Z" fill="black"/>
<path d="M862.24 1665.89C816.83 1646.39 769.35 1632.29 723.46 1614.04C577.67 1552.39 433.57 1486.77 285.28 1431.19C218.56 1405.4 152.21 1378.71 86.46 1350.56C62.47 1340.66 37.76 1332.62 13.85 1322.49C9.76997 1320.59 5.22997 1319.22 1.94997 1316.04C-0.600029 1309.92 7.57997 1303.87 12.81 1302.37C12.21 1302.55 11.61 1302.69 11.06 1302.99C13.35 1302.1 16.37 1301.53 17.52 1303.41C42.21 1316.35 69.63 1323.46 95.24 1334.44C137.06 1351.71 178.42 1370.08 220.68 1386.29C380.39 1447.06 537.87 1513.1 694.28 1581.81C741.39 1603.28 790.63 1619.08 839.07 1637.15C846.04 1640.75 878.1 1649.49 876.83 1654.68C875.61 1660.79 868.49 1666.66 862.24 1665.89Z" fill="black"/>
<path d="M871.68 1606.87C768.78 1565.38 667.51 1519.56 562.96 1482.11C394.13 1413.81 222.66 1352.31 53.95 1283.72C46.66 1280.87 39.38 1277.97 32.01 1275.31C24.67 1272.67 17.15 1270.4 10.03 1267.2C7.57998 1266.73 7.33998 1263.52 8.42998 1261.66C10.31 1257.31 14.8 1253.84 19.3 1252.61C24.97 1252.13 29.97 1256.39 35.48 1257.53C47.88 1261.72 60.02 1266.62 72.21 1271.36C190.44 1319.62 310.03 1364.5 429.59 1409.35C529.83 1451.35 632.58 1486.88 732.61 1529.32C780.95 1550.95 830.59 1569.43 879.26 1590.2C880.91 1590.93 882.57 1591.63 884.26 1592.29C892 1596.59 876.5 1609.08 871.68 1606.87Z" fill="black"/>
<path d="M867.76 1598.52C863.92 1593.11 864.52 1583.3 870.25 1579.39C876.98 1575.98 884.07 1573.28 890.94 1570.17C908.2 1562.63 925.45 1555.06 942.34 1546.7C970.74 1533.02 998.01 1517.2 1025.98 1502.7C1044.18 1493.27 1062.7 1484.42 1080.39 1474.03C1135.8 1441.23 1192.05 1409.68 1249.18 1379.98C1256.11 1377.89 1255.91 1390.27 1254.57 1394.32C1254.07 1395.94 1253.14 1398.27 1251.49 1399.09C1214.72 1417.25 1179.6 1438.55 1143.48 1457.93C1106.58 1478.14 1071.29 1501.16 1033.24 1519.25C982.85 1546.33 932.52 1573.58 879.51 1595.28C877.24 1596.32 874.92 1597.25 872.7 1598.41C871.45 1599.97 869.11 1600.21 867.76 1598.52Z" fill="black"/>
<path d="M2.88002 1302.09C3.15002 1294.32 -3.42998 1249.96 9.50002 1253.57C13.98 1257.85 13.66 1265.57 11.66 1271.02C11.69 1279.68 12.05 1288.36 12.64 1296.21C14.46 1305.12 5.69002 1316.94 2.88002 1302.09Z" fill="black"/>
<path d="M4.76999 1265.16C-0.470005 1261.63 0.269998 1252.84 2.75 1247.74C6.71 1242.15 15.21 1242.04 21.03 1239.01C48.24 1228.22 73.86 1216.19 100.66 1205.13C126.86 1193.29 153.51 1182.57 180.68 1173.15C182.22 1172.6 183.63 1173.94 184.36 1175.11C187.14 1180.35 187.06 1189.7 181.42 1192.94C122.3 1212.81 66.97 1242.14 8.51 1263.64C7.62 1264.8 6.21999 1265.71 4.76999 1265.16Z" fill="black"/>
<path d="M65.5 1280.2C61.02 1275.65 61.6 1266.51 65.6 1261.81C74.05 1256.68 83.92 1254.05 92.91 1249.89C122.1 1237.68 151.46 1225.91 180.74 1213.93C188.81 1210.61 196.95 1207.45 205.01 1204.11C206.51 1203.49 207.99 1204.96 208.69 1206.07C211.47 1211.33 211.39 1220.6 205.75 1223.89C168.72 1238.93 131.62 1253.79 94.76 1269.21C87.12 1272.36 79.42 1275.38 71.84 1278.66C69.65 1279.34 67.76 1281.82 65.5 1280.2Z" fill="black"/>
<path d="M31.82 1903.33C19.17 1899.59 21.79 1891.32 21 1880.78C20.02 1862.59 18.89 1844.4 18.4 1826.18C18.03 1765.61 13.02 1705.19 14.38 1644.59C14 1555.23 11.45 1465.53 14.72 1376.24C15.02 1357.72 14.52 1339.16 16.03 1320.68C18.89 1314.5 29.01 1320.14 32.28 1323.56C36.51 1327.04 32.59 1341.5 33.33 1347.34C33.36 1375.4 32.51 1403.44 31.61 1431.48C31.11 1528.01 32.66 1624.56 33.06 1721.09C36.4 1776.06 35.91 1831.15 39.32 1886.13C39.65 1890.91 39.7 1895.72 40.04 1900.49C40.5 1904.77 34.3 1904.06 31.82 1903.33Z" fill="black"/>
<path d="M880.87 1904.56C868.95 1901.74 871.26 1893.71 870.81 1884C870.96 1868.97 871.25 1853.93 871.5 1838.89C873.05 1784.66 869.91 1729.62 869 1675.87C872.72 1672.6 878.62 1674.75 882.53 1676.68C886.17 1678.4 888.29 1681.99 887.97 1685.99C888.27 1693.62 888.55 1701.26 888.75 1708.89C889.75 1740.86 890.97 1772.83 890.97 1804.82C891.06 1831.72 890.31 1858.61 889.95 1885.5C889.85 1890.98 890.13 1896.45 890.41 1901.92C889.75 1906.04 883.84 1905.35 880.87 1904.56Z" fill="black"/>
<path d="M280.27 1572.53C277.21 1568.92 277.12 1563.47 278.13 1559.05C279.73 1552.67 287.64 1550.07 292.35 1546.14C300.48 1540.15 306.2 1538.52 308.2 1550.49C312.73 1550.32 317.48 1550.79 321.84 1549.4C322.68 1536.48 322.51 1525.65 320.95 1513.11C320.02 1503.53 319.44 1504.07 310.27 1502.67C301.89 1501.46 293.45 1500.26 284.97 1500.11C277.16 1500.87 277.3 1479.43 285.25 1480.13C296.48 1480.54 307.72 1481.94 318.71 1484.25C326.17 1486.23 328.47 1494.62 329.61 1501.35C332.38 1517.68 332.82 1534.31 331.76 1550.81C331.69 1558.4 329.99 1568.75 320.83 1569.83C317.07 1570.45 313.24 1570.37 309.44 1570.47C304.36 1571.17 301.23 1566.64 300.02 1562.22C294.53 1565.54 289.36 1569.39 284.15 1573.13C282.9 1574.09 281.29 1573.57 280.27 1572.53Z" fill="black"/>
<path d="M234.41 1553.4C232.92 1541.28 237.81 1540.62 246.85 1535.51C260.15 1527.83 273.41 1520.03 286.97 1512.82C292.78 1509.79 298.64 1506.79 304.79 1504.5C311.02 1501.38 313.55 1506.56 313.93 1512.03C314.08 1515.84 313.81 1520.7 310.56 1523.24C295.4 1527.17 281.98 1536.7 268.16 1544.05C259.02 1549.28 249.96 1554.64 240.74 1559.73C237.07 1562 234.83 1556.22 234.41 1553.4Z" fill="black"/>
<path d="M534.77 1683.22C525.33 1682.5 516.25 1679.56 507.45 1676.23C503.67 1675.17 500.56 1672.74 498.46 1669.43C495.6 1664.2 497.34 1654.64 502.63 1651.52C504.15 1650.91 505.43 1651.59 506.33 1652.85C507.69 1655.35 511.19 1656.73 513.38 1657.39C524.06 1661.37 535.35 1664.41 546.85 1663.67C548.01 1650.14 549.02 1636.6 550.13 1623.07C550.66 1613.7 550.85 1603.86 547.31 1595.01C544.44 1592.39 539.49 1592.85 535.84 1591.66C526.8 1589.78 517.73 1588.03 508.81 1585.64C512.44 1601.02 501.55 1606.3 490.02 1612.54C476.68 1620.08 463.74 1628.48 449.74 1634.78C444.78 1636.96 439.2 1639.49 433.84 1637.16C419.81 1633.32 406.42 1627.7 393.3 1621.48C368.67 1610.68 344.43 1598.65 318.74 1590.51C303.8 1586.14 288.7 1582.19 274.38 1576C263.44 1571.13 252.27 1566.78 240.66 1563.78C233.54 1562.01 237.45 1543.55 244.1 1544.05C259.58 1547.82 273.98 1554.66 288.71 1560.53C298.29 1563.96 308.07 1566.65 317.84 1569.47C337.3 1574.96 355.77 1583.27 374.2 1591.48C396.41 1600.8 417.72 1612.88 441.3 1618.44C450.04 1616.9 457.72 1611.66 465.55 1607.7C475.34 1602.15 484.98 1596.35 494.79 1590.85C490.52 1582.15 493.4 1567.18 504.1 1565.01C511.24 1564.43 518.13 1567.93 525.14 1569C533.26 1570.77 541.43 1572.28 549.52 1574.21C558.03 1576.69 558.41 1587.81 560.02 1595.09C562.62 1616.14 558.63 1637.29 557.5 1658.32C555.99 1676.23 556.36 1685.78 534.77 1683.22ZM245.55 1544.88C245.55 1544.87 245.56 1544.86 245.56 1544.84C245.34 1544.67 245.11 1544.5 244.89 1544.33C244.71 1544.26 244.53 1544.2 244.35 1544.13C244.82 1544.32 245.22 1544.58 245.55 1544.88Z" fill="black"/>
<path d="M434.12 1695.79C431.61 1691.72 432.51 1686.4 434.1 1682.14C436.56 1676.24 443.91 1675.33 448.82 1672.12C462.79 1664.88 476.48 1657.12 490.36 1649.71C504.06 1642.28 517.74 1634.85 531.88 1628.29C535.94 1626.41 537.11 1632.98 537.14 1635.53C537.06 1639.79 535.99 1645.2 532.04 1647.53C506.63 1659.47 482.32 1673.56 457.61 1686.84C452.66 1689.5 447.65 1692.07 442.62 1694.59C439.89 1695.52 436.48 1699.18 434.12 1695.79Z" fill="black"/>
<path d="M202.42 1589.02C202.83 1579.46 203.85 1569.93 204.68 1560.4C205.68 1553.38 205.64 1545.38 209.95 1539.42C212.79 1536.05 217.05 1534.52 220.82 1532.44C229.91 1527.8 238.97 1523.13 247.96 1518.31C261.45 1511.2 274.51 1503.23 288.35 1496.82C298.26 1492.58 296.05 1511.79 290.93 1515.13C280.87 1519.16 271.55 1524.86 261.97 1529.99C246.66 1538.57 231.01 1546.49 215.44 1554.58C214.23 1564.51 213.49 1574.51 212.76 1584.48C212.68 1587.01 212.29 1589.52 211.26 1591.87C207.8 1599.94 202.25 1596.51 202.42 1589.02ZM288.46 1515.87C288.65 1515.87 288.84 1515.87 289.02 1515.87C288.36 1515.87 287.69 1515.62 287.01 1515.14C287.24 1515.3 287.47 1515.47 287.7 1515.63C287.7 1515.63 287.7 1515.63 287.69 1515.63H287.7C287.7 1515.63 287.7 1515.63 287.71 1515.64C287.96 1515.71 288.21 1515.78 288.46 1515.87Z" fill="black"/>
<path d="M427.21 1692.29C389.64 1676.78 352.57 1660.04 314.77 1645.07C278.25 1630.97 241.53 1617.34 206.82 1599.08C204.72 1598.08 202.71 1596.83 200.52 1596.02C199.78 1595.73 199.51 1595.27 199.07 1594.66C197.27 1587.75 211.85 1581.08 217.07 1585.08C272.15 1613.98 331.67 1632.63 388.46 1657.74C406.43 1665.39 424.21 1673.51 442.37 1680.72C449.3 1686.01 432.08 1695.39 427.21 1692.29Z" fill="black"/>
<path d="M303.26 1553.47C299.94 1549.99 298.81 1544.68 299.35 1540.01C300.43 1532.12 301.74 1524.16 301.26 1516.17C298.95 1515.32 296.22 1514.9 293.8 1515.41C289.53 1515.56 287.66 1510.08 286.86 1506.64C285.95 1502.49 286.06 1494.92 292.03 1495.55C298.29 1495.18 304.6 1497.88 307.43 1503.72C312.32 1512.41 312.39 1522.77 311.72 1532.46C311.36 1537.53 310.7 1542.58 309.99 1547.62C309.88 1551.4 307.77 1557.59 303.26 1553.47Z" fill="black"/>
<path d="M532.89 1645.6C526.87 1639.44 529.31 1630.57 530.35 1623.03C530.7 1617.78 531.34 1612.36 529.98 1607.2C522.04 1604.94 513.31 1604.37 505.18 1605.94C499.07 1609.41 495.71 1596.02 496.74 1591.77C497.07 1585.28 504.78 1585.58 509.61 1585.46C518.03 1585.78 529.03 1584.92 534.61 1592.43C540.64 1601.52 541.62 1613.07 541.33 1623.72C541.09 1629.9 540.32 1635.97 539.3 1642.05C539.02 1645.55 536.09 1648.84 532.89 1645.6Z" fill="black"/>
<path d="M551.01 1812.51C493.16 1782.29 432.04 1759.05 373.94 1729.27C345.42 1715.99 315.66 1702.96 287.02 1690.5C262.65 1679.76 237.19 1671.4 213.32 1659.54C202.06 1655.25 215.33 1643.11 222.52 1643.36C225.69 1643.98 228.26 1646.93 231.43 1647.93C276 1666.89 321.08 1684.65 365.04 1705.05C404.48 1722.65 442.63 1743.02 482.36 1760.02C510.82 1771.84 538.28 1784.53 565.39 1798.98C570.95 1804.41 556.29 1815.57 551.01 1812.51Z" fill="black"/>
<path d="M554.71 1944.16C551.01 1942.6 546.19 1939.76 546.12 1935.26C547.5 1914.22 547.82 1893.11 548.91 1872.05C549.95 1850.7 550.03 1829.31 550.68 1807.96C551.2 1805.56 549.93 1802.71 551.52 1800.69C557.12 1797.4 565.27 1801.9 568.51 1806.85C570.26 1812.3 568.43 1818.39 568.79 1824.06C568.48 1850.63 567.44 1877.18 566.24 1903.72C565.66 1916.7 565.47 1929.7 564.49 1942.65C563.35 1946.66 557.56 1945.28 554.71 1944.16Z" fill="black"/>
<path d="M211.65 1862.4C207.57 1861.11 202.37 1858.35 201.44 1853.81C201.2 1822.18 200.34 1790.55 200.83 1758.92C201.88 1726.69 203.06 1694.47 202.72 1662.23C202.67 1659.79 202.79 1657.38 202.64 1654.93C201.34 1651.83 205.05 1650.11 207.63 1650.58C213.42 1651.2 221.1 1655.01 221.05 1661.67C221.17 1670.15 221.11 1678.62 221.14 1687.1C221.01 1710.84 220.34 1734.59 219.4 1758.32C218.6 1786.69 219.35 1813.85 219.62 1842.04C219.69 1847.85 219.76 1853.66 219.83 1859.48C219.99 1863.66 214.39 1863.36 211.65 1862.4Z" fill="black"/>
<path d="M268.81 1897.86C247.69 1885.62 226.14 1874.21 204.2 1863.49C195.75 1859.03 212.22 1846.02 217.69 1849.6C239.95 1860.59 262 1872.11 283.48 1884.62C288.81 1890.12 274.13 1901.08 268.81 1897.86Z" fill="black"/>
<path d="M489.28 1870.53C450.99 1853.74 413.98 1834.26 376.16 1816.48C338.29 1798.61 299.18 1783.58 261.02 1766.4C256.9 1765.15 259.88 1759.59 261.5 1757.49C264.19 1754.21 268.42 1750.58 272.95 1751.24C331.47 1776.5 390.52 1800.67 447.21 1829.97C465.53 1838.98 484.05 1847.65 502.7 1855.96C504.19 1856.62 504.22 1858.62 503.93 1859.95C502.31 1865.53 495.42 1872.28 489.28 1870.53Z" fill="black"/>
<path d="M1391.19 1899.02C1383.7 1897.51 1378.96 1892.39 1380.08 1884.56C1380.04 1876.39 1380.22 1868.21 1380.4 1860.04C1381.11 1827.33 1383.11 1794.69 1384.42 1762C1386.54 1652.82 1391.27 1543.73 1393.81 1434.56C1394.21 1418.15 1394.35 1401.73 1394.66 1385.31C1394.68 1383.96 1395.96 1383.1 1397.09 1382.72C1403.09 1381.28 1412.34 1385.03 1413.46 1391.51C1413.17 1412.36 1412.86 1433.22 1412.29 1454.06C1408.23 1593.31 1404.25 1732.55 1399.09 1871.76C1398.79 1880.1 1398.77 1888.68 1399.2 1896.84C1398.01 1899.92 1393.84 1899.59 1391.19 1899.02Z" fill="black"/>
<path d="M1895.65 1827.85C1887.95 1802.71 1882.66 1776.78 1873.99 1751.97C1862.55 1741.41 1873.31 1716.7 1882.71 1743.77C1891.1 1769.03 1896.82 1795.13 1904.48 1820.63C1907.57 1829.07 1900.6 1842.21 1895.65 1827.85Z" fill="black"/>
<path d="M1578.96 686.67C1573.84 683.26 1573.58 669.1 1572.25 663.06C1570.31 639.16 1572.72 615.46 1571.55 591.55C1571.75 583.58 1568.15 495.03 1583.53 510.36C1587.42 517.18 1583.05 524.57 1582.73 531.66C1579.65 569.09 1582.93 606.65 1581.47 644.14C1581.27 652.4 1582.26 660.66 1584.1 668.71C1586.05 673.74 1586.52 687.09 1578.96 686.67Z" fill="black"/>
<path d="M1581.5 691.72C1575.68 679.41 1585.49 672.33 1593.5 664.76C1605.19 653.53 1617.63 643.11 1630.61 633.4C1705.04 581 1786.26 534.26 1871.31 501.59C1878.89 501.21 1877.7 519.61 1871.71 521.39C1819.32 541.09 1769.46 566.53 1721.62 595.52C1682.9 618.08 1644.1 641.26 1610.14 670.71C1602.26 677.68 1594.53 684.86 1587.17 692.37C1585.61 694.47 1582.62 694.11 1581.5 691.72Z" fill="black"/>
<path d="M1577.76 527.53C1572.64 517.57 1580.39 507.73 1586.43 500.23C1596.81 487.11 1607.5 474.22 1618.94 462.01C1664.99 415.88 1720.74 379.72 1778.62 350.19C1785.87 347.17 1825.21 325.11 1828.04 332.53C1830.75 337.76 1830.48 347.22 1824.8 350.3C1818.31 352.28 1811.96 354.7 1805.7 357.3C1737.33 389.05 1671.29 429.67 1618.64 484.1C1607.44 496.86 1596.26 509.73 1586.26 523.47C1584.57 526.71 1581.24 532.98 1577.76 527.53Z" fill="black"/>
<path d="M1872.81 513.17C1868.1 510.93 1864.88 486.58 1862.48 480.24C1853.98 449.99 1845.43 419.76 1837.32 389.4C1833.38 374.29 1828.91 359.24 1822.2 345.1C1819.35 340.54 1822.52 322.2 1829.62 330.28C1838.78 349.35 1844.08 369.97 1849.35 390.4C1856.89 418.73 1865.4 446.79 1872.83 475.14C1874.52 485.21 1879.61 495.03 1879.05 505.29C1878.61 508.48 1876.91 514.09 1872.81 513.17Z" fill="black"/>
<path d="M991.09 1091.14C942.93 1069.69 894.04 1049.65 844.08 1032.77C807.92 1020.11 770.97 1009.8 734.7 997.52C727.19 992.91 742.94 981.61 748.11 983.96C829.31 1009.44 910.49 1035.4 988.25 1070.35C993.66 1072.76 999.08 1075.17 1004.5 1077.58C1005.69 1078.11 1006.45 1078.88 1006.49 1080.25C1005.87 1086.45 997.08 1092.4 991.09 1091.14Z" fill="black"/>
<path d="M935.54 1285.09C934.91 1282.62 935.23 1279.64 936.06 1277.25C941.05 1262.93 945.88 1250.13 950.43 1236.72C965.8 1193.92 980.83 1150.93 990.69 1106.46C993.39 1097.04 994.19 1086.59 999.22 1078.07C1001.26 1074.97 1005.62 1073.62 1006.67 1078.51C1007.87 1083.58 1005.23 1088.45 1004.19 1093.32C1001.63 1103.49 999.32 1113.72 996.78 1123.89C987.2 1163.98 973.12 1202.74 959.34 1241.52C954.88 1254.53 949.86 1268.02 945.49 1280.48C944.61 1284.87 937.9 1292.96 935.54 1285.09Z" fill="black"/>
<path d="M151.35 1124.38C150.25 1118.8 152.54 1110.94 157.98 1108.43C166.99 1108.16 176.06 1108.11 185.09 1107.38C284.95 1095.76 382.62 1069.66 480.46 1047.17C511.14 1039.66 541.92 1032.6 572.62 1025.16C581.26 1024.71 575.66 1043.05 570.12 1044.24C464.52 1069.24 359.25 1095.93 252.57 1116.06C222.6 1121.66 192.39 1127.13 161.82 1127.62C158.14 1127.27 152.27 1129.39 151.35 1124.38Z" fill="black"/>
<path d="M222.2 1115.77C216.18 1095.67 210.7 1075.39 206.32 1054.87C204.3 1040.79 194.14 1013.15 199.87 1001.06C201.07 998.26 204.94 993.62 207.89 997.01C209.94 1000.58 209.01 1005.37 210.12 1009.35C216.12 1040.92 223.47 1072.26 232.81 1103.02C235.27 1108.26 226.77 1126.55 222.2 1115.77Z" fill="black"/>
<path d="M192.69 1013.61C188.58 1008.9 191.57 1000.86 195.12 996.59C198.95 992.86 205.02 993.97 209.91 993.01C215.98 992.31 222 991.4 228.03 990.45C270.95 983.09 313.59 974.16 356.26 965.51C433.05 949.46 510.46 936.58 587.23 920.47C594.37 919.97 591.23 932.25 588.9 935.7C588 937.16 586.55 939.15 584.74 939.55C564.08 944.19 543.24 947.92 522.45 951.92C479.84 960.16 437.13 967.94 394.57 976.4C327.48 988.76 260.14 1006.43 192.69 1013.61Z" fill="black"/>
<path d="M804.65 1562.12C800.29 1561.61 795.02 1559.75 793.08 1555.48C789.41 1545.97 786.17 1536.31 782.53 1526.78C766.66 1486.09 753.55 1444.39 739.08 1403.19C693.98 1274.44 640.58 1146.52 563.79 1033.26C555.7 1023.57 573.62 1024.46 578.12 1028.99C580.7 1031 582.25 1034.23 584.42 1036.7C673.14 1170.15 730.83 1321.32 781.15 1472.69C788.19 1493.41 795.77 1513.94 803.63 1534.36C806.55 1542.15 809.1 1550.07 812.19 1557.8C813.15 1561.79 807.58 1562.6 804.65 1562.12Z" fill="black"/>
<path d="M715.07 1205.37C704.28 1201.88 697.98 1176.62 692.54 1166.49C687.48 1154.85 682.18 1143.54 676.83 1132.05C645.97 1065.31 619.69 995.2 575.94 935.49C568.47 923.92 592.26 927.7 593.72 935.18C637.94 995.6 664.9 1067.17 696.01 1134.46C704.96 1153.27 713.06 1172.08 721.29 1191.11C722.61 1194.15 724.1 1197.13 726.08 1199.81C726.91 1201.04 728.06 1202.31 727.6 1203.91C725.34 1208.19 718.8 1206.65 715.07 1205.37Z" fill="black"/>
<path d="M683.76 1218C675.03 1214.77 674.29 1207.42 685.07 1208.09C695.74 1207.47 706.4 1206.39 716.93 1204.56C723.14 1203.86 729.23 1200.61 735.52 1201.83C739.4 1202.74 744.76 1204.64 745.55 1209.06C746.55 1214.02 720.38 1216.25 716 1217.19C705.38 1217.77 694.17 1221 683.76 1218Z" fill="black"/>
<path d="M695.84 1258.83C688.22 1250.57 705.1 1251.79 709.52 1250.2C720.88 1248.15 732.24 1246.08 743.6 1243.98C748.1 1243.14 753.13 1244.26 756.83 1247.02C760.12 1249.04 761.14 1253.54 756.46 1254.47C744.24 1256.71 732 1258.93 719.77 1261.16C711.89 1262.67 702.32 1265.02 695.84 1258.83Z" fill="black"/>
<path d="M888.59 1569.15C884.26 1568.61 878.89 1566.8 877.01 1562.51C874.42 1554.74 872.41 1546.8 869.83 1539.02C859.49 1509.46 849.55 1478.62 836.65 1450.25C810.12 1391.67 781.36 1334.11 756.64 1274.72C752.83 1266.1 749.24 1257.32 744.61 1249.11C743.74 1248.13 742.9 1246.74 743.41 1245.53C747.05 1239.76 758.54 1243.72 761.94 1248.21C781.51 1286.15 796.08 1326.64 814.88 1365.03C837.64 1413.49 862.22 1461.36 878.85 1512.39C885.12 1529.71 890.9 1547.17 896.12 1564.82C897.4 1568.85 891.53 1569.39 888.59 1569.15Z" fill="black"/>
<path d="M744.29 1247.52C740.02 1246.93 734.47 1245.21 732.72 1240.88C730.55 1230.51 727.74 1220.29 725.55 1209.93C722.29 1198.71 746.22 1204.23 744.64 1212.21C746.76 1222.6 749.72 1232.81 751.82 1243.21C752.68 1247.31 747.37 1247.8 744.29 1247.52Z" fill="black"/>
<path d="M204.93 1113.05C192.38 1107.72 191.37 1091.83 186.72 1080.64C177.72 1053.98 167.51 1027.74 157.5 1001.45C144.82 967.95 129.75 935.37 117.56 901.71C117.08 900.28 116.85 898.31 118.04 897.14C119.25 895.96 121.18 896.28 122.62 896.77C131.6 899.89 133.29 909.79 136.33 917.6C159.09 972.96 181.94 1028.33 201.36 1084.97C203.37 1090.97 205.28 1097 207.5 1102.93C211.18 1106.33 212.56 1115.65 204.93 1113.05Z" fill="black"/>
<path d="M121.4 911.12C119.11 910.17 118.5 907.44 118.52 905.16C117.95 890.32 134.6 887.15 145 881.41C174.74 867.48 205.17 855 236.02 843.76C334.46 808.28 436.29 777.76 540.53 766.09C548.16 767.54 542.95 784.93 536.83 785.55C479.08 790.56 422.52 805.7 366.54 820.22C282.61 843.27 199.02 872.71 121.4 911.12ZM127.64 892.37C127.6 892.32 127.56 892.27 127.53 892.23C127.39 892.17 127.26 892.1 127.12 892.04C127.31 892.13 127.48 892.25 127.64 892.37Z" fill="black"/>
<path d="M865.1 1479.17C849.24 1473.89 841.42 1403.77 833.24 1385.7C821.63 1355.99 807.92 1327.11 795.33 1297.8C746.16 1190.62 700.19 1083.12 646.33 978.3C613.79 911.94 583.42 843.27 539.34 783.59C534.35 780.71 528.28 764.07 539.04 768.72C545.53 773.61 550.06 780.65 554.8 787.16C592.12 842.91 621.98 903.27 650.55 963.85C688.91 1039.6 724.97 1116.62 759.96 1193.96C778.8 1239.2 800.54 1283.04 819.7 1327.88C836.1 1363.06 851.34 1398.77 858.24 1437.19C859.57 1442.94 860.84 1448.73 862.73 1454.33C863.84 1460.94 874.68 1479.68 865.1 1479.17Z" fill="black"/>
<path d="M280.53 1354.77C266.8 1353.03 262.9 1333.19 256.74 1322.75C252.16 1313.09 247.63 1303.42 243.05 1293.76C229.41 1265.52 215.61 1237.33 201.02 1209.57C183.96 1179.05 164.12 1150.17 144.63 1121.18C137.59 1110.21 156.39 1112.53 163.16 1126.3C173.74 1141.34 183.19 1157.14 193.57 1172.32C217.73 1208.27 235.66 1247.81 254.91 1286.48C263.89 1304.81 272.18 1323.49 281.22 1341.8C283.2 1346.29 290.81 1355.77 280.53 1354.77Z" fill="black"/>
<path d="M153.9 1113.57C147.39 1099.59 141.98 1085.08 136.56 1070.65C133.92 1062.73 131.33 1052.53 137.11 1045.41C141.01 1042.22 146.34 1041.51 150.97 1039.77C157.7 1038.31 178.07 1031.19 183.23 1034.01C187.86 1038.12 187.72 1047.73 183.95 1052.38C183 1053.35 181.69 1053.8 180.47 1053.22C168.39 1054.51 157.17 1058.18 145.65 1061.75C149.58 1072.14 153.83 1082.43 157.91 1092.76C159.7 1097.25 162.71 1101.46 162.44 1106.49C163.01 1111.46 158.32 1121.56 153.9 1113.57Z" fill="black"/>
<path d="M254.07 767.38C254.25 761.57 257.16 756.09 263.42 755.51C272.74 752.77 282.09 750.15 291.47 747.58C364.71 727.04 439.8 713.48 515.7 708.19C561.71 705.47 608.51 701.39 654.31 707.9C661.04 710.1 658.23 727.52 651.51 727.7C626.75 723.15 601.32 724.84 576.26 724.65C474.14 727.17 372.61 742.88 274.6 771.72C271.6 775.1 264.93 773.76 260.72 775.73C255.2 778.66 253.69 771.31 254.07 767.38Z" fill="black"/>
<path d="M623.35 905.77C623.23 863.02 627.96 820.24 634.76 778.07C638.9 757.26 640.86 737.74 647.07 717.8C652.95 708.27 656.81 720.33 655.02 726.24C647.22 761.23 641.13 796.21 637.63 831.76C635.64 854.74 633.1 877.74 633.63 900.84C634.66 909.63 624.79 920.99 623.35 905.77Z" fill="black"/>
<path d="M225.36 866.62C216.98 864.82 225.76 832.09 226.27 824.8C229.6 808.11 233.63 791.34 240.45 775.7C243.25 771.07 245.34 762.3 251.24 761.26C255.33 762.49 255.17 768.39 254.79 771.86C254.33 777.42 249.87 781.18 247.89 786.18C241.7 800.33 238.44 815.56 235.34 830.64C232.8 837.96 233.96 867.15 225.36 866.62Z" fill="black"/>
<path d="M1034.61 1130.6C1024.75 1124.21 1014.55 1118.29 1003.8 1113.52C1001.05 1112.12 997.99 1111.37 995.14 1110.29C990.46 1105.33 999.9 1092.36 1006.07 1093.67C1020.46 1098.25 1033.56 1106.32 1046.26 1114.35C1047.47 1115.13 1047.61 1116.87 1047.51 1118.14C1046.94 1123.48 1040.74 1132.85 1034.61 1130.6Z" fill="black"/>
<path d="M962.26 1292.45C961.55 1290.33 962.46 1287.88 963.3 1285.95C971.44 1267.34 980.34 1249.07 988.85 1230.63C995.83 1215.08 1002.36 1203.14 1009.98 1188.9C1019.61 1170.01 1029.42 1151.17 1037.86 1131.72C1040.12 1126.21 1040.91 1119.83 1046 1116.03C1048.26 1113.72 1053.62 1112.15 1054.01 1116.81C1052.63 1128.39 1045.84 1138.91 1041.3 1149.54C1032.17 1168.51 1022.53 1187.22 1012.55 1205.76C1002.45 1225.35 993.59 1245.55 984.17 1265.48C979.63 1273.88 977.36 1283.85 971.15 1291.19C969.08 1293.46 964.01 1296.61 962.26 1292.45Z" fill="black"/>
<path d="M1048.91 1158.56C1045.25 1156.19 1041.32 1154.46 1037.16 1153.48C1032.46 1148.27 1042.08 1135.72 1048.03 1136.76C1052.59 1137.48 1056.64 1140.02 1060.57 1142.31C1061.79 1143.04 1061.91 1144.87 1061.82 1146.1C1061.22 1151.45 1055.08 1160.79 1048.91 1158.56Z" fill="black"/>
<path d="M971.58 1298.71C966.72 1297.9 969.12 1291.46 970.78 1288.67C975.46 1279.92 980.21 1271.21 985.05 1262.56C993.71 1247.32 1002.69 1232.23 1012.45 1217.67C1023.21 1201.56 1034.49 1185.81 1046.12 1170.33C1049.4 1166.54 1071.28 1134.32 1072.48 1150.35C1070.94 1159.27 1062.17 1164.56 1057.51 1171.88C1040.19 1194.76 1023.35 1218.07 1008.48 1242.62C1003.02 1251.67 997.67 1260.76 992.55 1270.01C987.47 1277.25 980.48 1298.62 971.58 1298.71Z" fill="black"/>
<path d="M1060.01 1161.3C1050.84 1158.12 1062.79 1140.48 1069.58 1143.71C1077.1 1147.61 1066.51 1162.8 1060.01 1161.3Z" fill="black"/>
<path d="M1113.46 1368.16C1047.09 1325.1 970.87 1299.72 894.43 1281.15C889.63 1279.82 884.52 1279.17 879.77 1278.01C876.46 1275.17 880.35 1270.59 882.62 1268.35C886.01 1265.05 890.88 1262.93 895.58 1264.3C956.6 1277.72 1016.64 1297.15 1073.21 1323.77C1092.22 1332.54 1110.07 1343.53 1127.81 1354.59C1133.55 1359.62 1118.55 1371.46 1113.46 1368.16Z" fill="black"/>
<path d="M1054.57 1494.08C1053.18 1493.19 1053.06 1491.39 1053.58 1489.96C1055.24 1485.38 1056.85 1480.77 1058.36 1476.14C1062.72 1460.15 1070.88 1445.77 1080.14 1432.16C1093.54 1411.58 1104.33 1389.44 1117.75 1368.88C1118.47 1363.62 1133.84 1353.04 1134.35 1362.46C1132.98 1367.96 1129.05 1372.45 1126.16 1377.23C1123.28 1381.67 1120.62 1386.23 1118.06 1390.86C1107.35 1411.13 1094.72 1430.25 1082.91 1449.87C1077.04 1460.83 1074.39 1473.09 1069.92 1484.63C1067.86 1489.98 1060.5 1496.28 1054.57 1494.08Z" fill="black"/>
<path d="M892.44 1159.14C869.16 1152.32 845.14 1148.42 821.3 1144.07C787.97 1138.46 754.95 1130.07 721.47 1125.86C716.18 1121.77 721.89 1109.77 727.05 1107.66C732.41 1106.69 737.93 1108.68 743.28 1109.31C780.39 1116.06 817.32 1123.73 854.48 1130.23C869.96 1133.23 885.43 1136.38 900.57 1140.86C901.91 1141.26 902.41 1143.15 902.56 1144.32C903.11 1149.71 898.9 1160.04 892.44 1159.14Z" fill="black"/>
<path d="M865.18 1491.51C860.61 1484.6 863.08 1470.36 862.34 1462C860.24 1440.03 862.81 1418.05 862.7 1396.05C864.16 1365.65 864.08 1335.12 867.72 1304.86C873.01 1249.86 886.07 1195.91 892.17 1141.12C893.02 1138.18 896.02 1133.29 899.44 1135.89C902.74 1139.65 901.33 1145.27 901.12 1149.82C898.24 1180.11 891.6 1209.87 886.68 1239.87C880.2 1280.17 874.91 1320.78 874.32 1361.65C873.3 1389.21 872.07 1416.81 871.94 1444.38C872.78 1453.68 872.83 1463 872.79 1472.32C873.09 1476.98 874.28 1481.78 872.46 1486.29C871.6 1489.2 868.6 1494.13 865.18 1491.51Z" fill="black"/>
<path d="M931.84 1195.22C922.33 1191.23 912.17 1188.93 902.3 1186.02C898.1 1184.59 890.96 1184.2 891.85 1178.13C891.58 1173.39 898.76 1160.8 904.03 1165.91C913.44 1168.94 923.02 1171.16 932.4 1174.28C935.91 1175.9 942.36 1175.91 942.54 1180.84C942.84 1186.17 938.25 1196.47 931.84 1195.22Z" fill="black"/>
<path d="M909.93 1285.26C908.54 1283.84 908.63 1281.24 908.98 1279.45C912.99 1258.55 918 1237.82 925.95 1218.04C930.15 1207.98 933.02 1197.4 937.29 1187.4C938.77 1183.13 946.97 1175.9 948.05 1184.18C948.25 1186.6 947.51 1189.04 946.53 1191.24C943.9 1198.13 941.78 1205.2 939.09 1212.07C933.37 1226.42 928.26 1240.99 924.99 1256.11C922.69 1264.14 922.64 1272.98 918.79 1280.47C917.13 1283.22 913.36 1287.88 909.93 1285.26Z" fill="black"/>
<path d="M1009.8 1418.18C972.11 1398.88 933.61 1381.11 894.02 1366.06C888.19 1363.18 876.89 1360.54 873.31 1355.44C872.65 1349.03 878.84 1342.4 884.92 1341.19C886.22 1340.98 887.15 1341.68 888.12 1342.34C892.38 1344.88 897.09 1346.65 901.67 1348.5C916.65 1354.57 931.75 1360.33 946.66 1366.57C971.94 1377.83 996.99 1389.73 1021.63 1402.31C1027.85 1406.7 1015.49 1420.52 1009.8 1418.18Z" fill="black"/>
<path d="M952.99 1534.89C951.41 1531.42 954.27 1527.74 955.49 1524.59C959.44 1516.07 963.21 1507.47 966.66 1498.73C973.71 1481.12 980.76 1463.46 989.61 1446.66C996.17 1433.85 1004.45 1421.91 1009.7 1408.53C1011.67 1404.69 1021.28 1396.57 1022.95 1404.16C1021.23 1415.54 1013.19 1425 1008.09 1435.09C1002.76 1444.65 997.82 1454.39 993.3 1464.35C986.22 1480.32 980.28 1496.79 973.17 1512.74C969.72 1519.31 968 1527.08 962.76 1532.51C960.43 1534.71 955.7 1538.17 952.99 1534.89Z" fill="black"/>
<path d="M1042.67 1395.7C989.75 1367.09 934.14 1343.99 878.09 1322.35C871.61 1319.7 879.35 1310.05 882.99 1307.81C885.36 1306.04 888.44 1305.38 891.09 1306.94C894.7 1308.38 898.31 1309.83 901.93 1311.26C945.82 1328.1 989.18 1346.44 1031.15 1367.66C1039.01 1371.59 1046.73 1375.75 1054.51 1379.82C1058.28 1381.79 1055.06 1387.54 1053.37 1389.8C1050.94 1392.86 1046.94 1396.89 1042.67 1395.7Z" fill="black"/>
<path d="M967.26 1539.61C966.33 1538.07 966.91 1536.05 967.46 1534.5C974.16 1514.57 984.35 1496.17 993.32 1477.24C1009.3 1445.31 1026.24 1413.92 1045.13 1383.9C1047.54 1381.27 1051.84 1377.49 1055.49 1379.71C1057.74 1382.2 1055.76 1385.99 1054.27 1388.39C1042.45 1408.27 1030.96 1428.31 1020.27 1448.79C1009.42 1468.17 1000.25 1488.4 990.39 1508.28C987.11 1515.73 984.07 1523.32 981.33 1530.98C980.49 1533.34 978.81 1535.5 977.03 1537.22C974.69 1539.46 969.98 1542.87 967.26 1539.61Z" fill="black"/>
<path d="M1075.45 1380.07C1057.75 1369.37 1039.34 1359.85 1020.2 1351.99C976.45 1333.88 931.57 1317.7 885.04 1308.49C877.1 1305.6 889.65 1290.75 895.22 1292.16C962 1306.8 1028.09 1329.7 1087.29 1364.19C1093.49 1368.67 1081.12 1382.39 1075.45 1380.07Z" fill="black"/>
<path d="M1004.17 1523.41C1003.25 1521.88 1003.81 1519.84 1004.37 1518.3C1007.68 1509.24 1011.26 1500.29 1015.07 1491.43C1026.63 1463.13 1040.72 1433.56 1056.47 1408.43C1061.96 1398.78 1066.61 1390.17 1071.62 1380.46C1074.06 1375.58 1076.25 1370.13 1081.03 1367.05C1086.99 1362.85 1091.19 1366.37 1087.64 1373.02C1077.16 1394 1065.33 1414.22 1053.66 1434.53C1042.29 1454.36 1034.45 1475.93 1025.21 1496.79C1021.14 1504.63 1020.17 1514.59 1013.94 1521.02C1011.59 1523.25 1006.89 1526.67 1004.17 1523.41Z" fill="black"/>
<path d="M948.87 1546.11C947.96 1544.59 948.49 1542.52 949.07 1541C951.7 1533.88 954.58 1525.52 962.08 1522.27C963.49 1521.71 965.4 1521.29 966.67 1522.41C969.94 1526.57 963.76 1532.91 962.93 1537.48C961.29 1541.87 953.61 1550.72 948.87 1546.11Z" fill="black"/>
<path d="M1082.71 1314.81C1064.28 1305.7 1045.66 1296.97 1026.84 1288.69C1014.38 1283.5 1001.52 1279.32 988.71 1275.08C986.53 1274.51 983.6 1274.27 983.77 1271.32C984.07 1266.6 987.79 1262.61 991.59 1260.13C997.97 1256.01 1005.22 1261.93 1011.71 1263.26C1040.68 1272.51 1067.92 1286.27 1095.23 1299.48C1101.09 1304.37 1088.55 1317.19 1082.71 1314.81Z" fill="black"/>
<path d="M1095.73 1468.12C1095.28 1466.22 1096.22 1464.24 1097.07 1462.61C1101.66 1453.72 1106.45 1444.93 1111.29 1436.18C1122.36 1416.74 1134.44 1397.87 1144.74 1378C1147.81 1370.97 1152.27 1363.99 1152.86 1356.22C1149.99 1352.33 1144.29 1350.56 1140.3 1347.7C1135.14 1343.64 1143.71 1334.79 1147.76 1332.98C1149.15 1332.31 1151.33 1331.51 1152.83 1332.37C1156.8 1334.65 1160.72 1337.08 1164.57 1339.56C1167.02 1340.87 1168.4 1343.44 1168.47 1346.18C1168.16 1358.17 1161.49 1369.05 1156.43 1379.62C1148.98 1393.63 1140.82 1407.26 1132.73 1420.91C1127.44 1429.7 1122.44 1438.62 1117.56 1447.65C1113.27 1454.36 1111.18 1462.98 1104.68 1467.95C1102.34 1469.86 1097.03 1472.23 1095.73 1468.12Z" fill="black"/>
<path d="M1142.63 1441.68C1142.19 1439.78 1143.12 1437.8 1143.97 1436.17C1150.21 1424.18 1156.98 1412.46 1163.1 1400.41C1164.72 1396.15 1167.35 1392.4 1171.26 1389.98C1178.58 1385.51 1181.13 1391 1177.21 1397.31C1174.36 1403.09 1171.26 1408.74 1168.17 1414.39C1164.29 1421.46 1160.46 1428.57 1156.74 1435.72C1155.56 1437.99 1153.61 1440.01 1151.58 1441.51C1149.26 1443.39 1143.93 1445.81 1142.63 1441.68Z" fill="black"/>
<path d="M1092.25 1277.65C1085.47 1272.57 1078.56 1267.65 1072.2 1262.04C1068.84 1256.64 1076.68 1249.11 1081.51 1247.3C1083.02 1246.78 1084.79 1246.53 1086.09 1247.65C1089.06 1250.2 1092.05 1252.69 1095.17 1255.06C1098.8 1257.83 1102.49 1260.51 1106.14 1263.25C1110.3 1268.62 1097.92 1281.52 1092.25 1277.65Z" fill="black"/>
<path d="M1179.01 1320.43C1173.08 1316.88 1167.03 1313.52 1160.83 1310.46C1157.38 1308.15 1151.26 1308.48 1153.37 1302.73C1155.29 1297.54 1160.53 1291.79 1166.48 1292.17C1175.27 1295.39 1183.42 1300.43 1191.54 1305.1C1197.57 1309.69 1184.63 1323.03 1179.01 1320.43Z" fill="black"/>
<path d="M1031.31 1242.39C1025.11 1239.69 1018.96 1236.82 1012.86 1233.97C1012.37 1233.63 1011.77 1233.34 1011.54 1232.73C1009.66 1226.54 1018.32 1217.74 1024.42 1218.26C1030.93 1221.03 1037.29 1224.31 1043.84 1227.06C1045.34 1227.72 1045.53 1229.55 1045.3 1230.97C1043.89 1236.7 1037.7 1243.75 1031.31 1242.39Z" fill="black"/>
<path d="M1097.89 1279.71C1092.69 1274.74 1105.89 1260.98 1111.44 1265.06C1116.65 1270 1103.5 1283.75 1097.89 1279.71Z" fill="black"/>
<path d="M1207.04 1263.67C1203.62 1262.76 1200.21 1261.68 1196.7 1261.2C1192.4 1261.67 1192.09 1257.14 1194.11 1254.41C1200.17 1244.19 1210.13 1245.95 1219.76 1249.24C1227.02 1253.69 1212.59 1265.68 1207.04 1263.67Z" fill="black"/>
<path d="M1215.22 1263.33C1212.74 1261.99 1210.05 1260.9 1207.9 1259.05C1204.06 1253.21 1218.37 1241.76 1223.36 1246.29C1226.04 1248.44 1232.16 1249.04 1230.48 1253.66C1228.37 1259.2 1221.44 1265.38 1215.22 1263.33Z" fill="black"/>
<path d="M1211.53 1266.64C1209.03 1264.72 1203.66 1264.33 1204.04 1260.37C1205.45 1254.31 1212.38 1248.5 1218.74 1249.32C1221.19 1250.22 1223.42 1251.83 1225.81 1252.91C1227.26 1253.65 1227.17 1255.68 1226.79 1256.97C1224.68 1262.51 1217.75 1268.68 1211.53 1266.64Z" fill="black"/>
<path d="M1135.54 1224.45C1127 1220.76 1118.29 1217.47 1109.5 1214.39C1098.22 1212.33 1115.82 1194.92 1123.37 1200.38C1131.77 1203.32 1140.1 1206.46 1148.26 1210C1149.74 1210.66 1150.42 1211.73 1150.24 1213.39C1148.83 1219.4 1141.88 1225.39 1135.54 1224.45Z" fill="black"/>
<path d="M1040.41 1186.01C1040.2 1184.12 1041.33 1182.16 1042.4 1180.7C1045.07 1177.04 1049.54 1173.84 1054.2 1173.84C1055.73 1173.84 1056.96 1174.98 1057.12 1176.46C1057.33 1178.35 1056.2 1180.31 1055.13 1181.77C1052.46 1185.43 1047.99 1188.63 1043.33 1188.63C1041.8 1188.63 1040.57 1187.49 1040.41 1186.01Z" fill="black"/>
<path d="M808.94 377.22C806.83 375.73 805.11 373.61 803.85 371.36C802.71 369.32 801.67 366.77 801.96 364.37C802.15 362.77 803.11 361.34 804.86 361.34C806.34 361.34 807.74 362.08 808.91 362.91C811.02 364.4 812.74 366.52 814 368.77C815.14 370.81 816.18 373.36 815.89 375.76C815.7 377.36 814.74 378.79 812.99 378.79C811.52 378.79 810.12 378.05 808.94 377.22Z" fill="black"/>
<path d="M190.63 599.47C177.8 594.89 177.46 570.51 171.92 559.02C168.02 546.99 164.03 535.01 159.47 523.22C126.03 442.45 83.47 362.02 17.48 303.15C7.48999 296.23 7.86999 278.83 22.02 292.4C86.27 350.92 129.65 428.03 164.29 506.84C172.98 527.09 180.26 547.91 186.83 568.93C187.42 574.75 200.44 600.67 190.63 599.47Z" fill="black"/>
<path d="M335.98 341.67C233.54 316.56 128.83 296.83 22.9 300.19C19.04 299.6 13.28 302.19 10.25 299.95C7.20002 293.3 13.93 283.3 21.08 282.82C107.07 279.04 193.21 290.21 277.15 308.34C299.75 313.35 322.18 319.04 344.8 323.94C351.7 327.7 342.2 342.52 335.98 341.67Z" fill="black"/>
<path d="M492.12 655.24C487.19 653.59 485.16 647.77 484.2 643.11C480.84 631.1 476.66 619.31 472.76 607.47C437.41 511.63 398.94 414.36 332.67 335.25C327.92 329.48 329.75 313.84 338.52 324.88C395.48 392.09 431.23 473.39 463.55 554.52C473.74 579.7 482.94 605.28 491.12 631.18C492.26 636.77 501 654.74 492.12 655.24Z" fill="black"/>
<path d="M482.94 659.63C385.48 637.48 285.86 626.04 187.98 605.93C180.87 603.1 190.16 586.78 196.14 587.89C259.01 599.92 322.16 611 385.37 621.2C420.89 626.46 456.12 633.48 491.1 641.58C498.22 644.45 488.93 660.72 482.94 659.63Z" fill="black"/>
</svg>
